%TF.GenerationSoftware,KiCad,Pcbnew,10.0.6-1.fc44*%
%TF.CreationDate,2026-09-22T11:54:47-07:00*%
%TF.ProjectId,desk-sm-pcb,6465736b-2d73-46d2-9d70-63622e6b6963,rev?*%
%TF.SameCoordinates,Original*%
%TF.FileFunction,Legend,Bot*%
%TF.FilePolarity,Positive*%
%FSLAX46Y46*%
G04 Gerber Fmt 4.6, Leading zero omitted, Abs format (unit mm)*
G04 Created by KiCad (PCBNEW 10.0.6-1.fc44) date 2026-09-22 11:54:47*
%MOMM*%
%LPD*%
G01*
G04 APERTURE LIST*
%ADD10C,0.106680*%
%ADD11C,0.127000*%
%ADD12C,0.100000*%
%ADD13C,0.504000*%
G04 APERTURE END LIST*
D10*
X127207705Y-96043442D02*
X127841012Y-96043442D01*
X127841012Y-96043442D02*
X127915518Y-96080696D01*
X127915518Y-96080696D02*
X127952772Y-96117949D01*
X127952772Y-96117949D02*
X127990025Y-96192456D01*
X127990025Y-96192456D02*
X127990025Y-96341469D01*
X127990025Y-96341469D02*
X127952772Y-96415976D01*
X127952772Y-96415976D02*
X127915518Y-96453229D01*
X127915518Y-96453229D02*
X127841012Y-96490482D01*
X127841012Y-96490482D02*
X127207705Y-96490482D01*
X127990025Y-97272802D02*
X127990025Y-96825762D01*
X127990025Y-97049282D02*
X127207705Y-97049282D01*
X127207705Y-97049282D02*
X127319465Y-96974775D01*
X127319465Y-96974775D02*
X127393972Y-96900269D01*
X127393972Y-96900269D02*
X127431225Y-96825762D01*
%TO.C,U1*%
D11*
X125965000Y-95278728D02*
X125965000Y-103274000D01*
X126465000Y-103774000D02*
X127475000Y-103774000D01*
X127475000Y-94775000D02*
X126464728Y-94778728D01*
D12*
X127475000Y-106255000D02*
X127475000Y-92285000D01*
X146525000Y-90380000D02*
X129380000Y-90380000D01*
X146525000Y-108160000D02*
X129380000Y-108160000D01*
X148430000Y-92285000D02*
X148430000Y-106255000D01*
D11*
X125965000Y-95278728D02*
G75*
G02*
X126464728Y-94778730I500020J-22D01*
G01*
X126465000Y-103774000D02*
G75*
G02*
X125965000Y-103274000I0J500000D01*
G01*
D12*
X127471000Y-92285000D02*
G75*
G02*
X129376000Y-90380000I1905000J0D01*
G01*
X129380000Y-108160000D02*
G75*
G02*
X127475000Y-106255000I0J1905000D01*
G01*
X146525000Y-90380000D02*
G75*
G02*
X148430000Y-92285000I-1J-1905001D01*
G01*
X148430000Y-106255000D02*
G75*
G02*
X146525000Y-108160000I-1905000J0D01*
G01*
D13*
X128143000Y-90170000D02*
G75*
G02*
X127639000Y-90170000I-252000J0D01*
G01*
X127639000Y-90170000D02*
G75*
G02*
X128143000Y-90170000I252000J0D01*
G01*
X128866000Y-91387000D02*
G75*
G02*
X128362000Y-91387000I-252000J0D01*
G01*
X128362000Y-91387000D02*
G75*
G02*
X128866000Y-91387000I252000J0D01*
G01*
%TD*%
M02*
