M48
; DRILL file KiCad 10.0.6-1.fc44 date 2026-09-22T11:54:32
; FORMAT={-:-/ absolute / metric / decimal}
; #@! TF.CreationDate,2026-09-22T11:54:32-07:00
; #@! TF.GenerationSoftware,Kicad,Pcbnew,10.0.6-1.fc44
; #@! TF.FileFunction,Plated,1,2,PTH
FMAT,2
METRIC
; #@! TA.AperFunction,Plated,PTH,ViaDrill
T1C0.300
; #@! TA.AperFunction,Plated,PTH,ComponentDrill
T2C0.800
; #@! TA.AperFunction,Plated,PTH,ComponentDrill
T3C0.900
; #@! TA.AperFunction,Plated,PTH,ComponentDrill
T4C1.000
%
G90
G05
T1
X130.75Y-101.75
X135.0Y-103.25
X139.0Y-86.1
X141.75Y-112.9
X142.0Y-101.9
X144.5Y-86.1
X144.75Y-101.75
X146.75Y-101.5
X149.0Y-112.9
X150.5Y-112.9
X152.25Y-102.25
X160.75Y-112.75
T2
X165.0Y-88.0
X165.0Y-93.0
T3
X130.75Y-119.25
X130.75Y-123.75
X137.25Y-119.25
X137.25Y-123.75
X140.75Y-119.25
X140.75Y-123.75
X147.25Y-119.25
X147.25Y-123.75
T4
X135.38Y-84.0
X137.92Y-84.0
X140.46Y-84.0
X143.0Y-84.0
X145.54Y-84.0
X148.08Y-84.0
X150.5Y-119.5
X150.5Y-122.0
X150.5Y-124.5
X150.62Y-84.0
X153.16Y-84.0
X155.7Y-84.0
X158.24Y-84.0
X160.78Y-84.0
X163.5Y-119.5
X163.5Y-124.5
M30
