%TF.GenerationSoftware,KiCad,Pcbnew,10.0.6-1.fc44*%
%TF.CreationDate,2026-09-22T11:54:47-07:00*%
%TF.ProjectId,desk-sm-pcb,6465736b-2d73-46d2-9d70-63622e6b6963,rev?*%
%TF.SameCoordinates,Original*%
%TF.FileFunction,Legend,Top*%
%TF.FilePolarity,Positive*%
%FSLAX46Y46*%
G04 Gerber Fmt 4.6, Leading zero omitted, Abs format (unit mm)*
G04 Created by KiCad (PCBNEW 10.0.6-1.fc44) date 2026-09-22 11:54:47*
%MOMM*%
%LPD*%
G01*
G04 APERTURE LIST*
%ADD10C,0.150000*%
%ADD11C,0.158750*%
%ADD12C,0.120000*%
G04 APERTURE END LIST*
D10*
X142666667Y-117407200D02*
X142809524Y-117454819D01*
X142809524Y-117454819D02*
X143047619Y-117454819D01*
X143047619Y-117454819D02*
X143142857Y-117407200D01*
X143142857Y-117407200D02*
X143190476Y-117359580D01*
X143190476Y-117359580D02*
X143238095Y-117264342D01*
X143238095Y-117264342D02*
X143238095Y-117169104D01*
X143238095Y-117169104D02*
X143190476Y-117073866D01*
X143190476Y-117073866D02*
X143142857Y-117026247D01*
X143142857Y-117026247D02*
X143047619Y-116978628D01*
X143047619Y-116978628D02*
X142857143Y-116931009D01*
X142857143Y-116931009D02*
X142761905Y-116883390D01*
X142761905Y-116883390D02*
X142714286Y-116835771D01*
X142714286Y-116835771D02*
X142666667Y-116740533D01*
X142666667Y-116740533D02*
X142666667Y-116645295D01*
X142666667Y-116645295D02*
X142714286Y-116550057D01*
X142714286Y-116550057D02*
X142761905Y-116502438D01*
X142761905Y-116502438D02*
X142857143Y-116454819D01*
X142857143Y-116454819D02*
X143095238Y-116454819D01*
X143095238Y-116454819D02*
X143238095Y-116502438D01*
X143571429Y-116454819D02*
X143809524Y-117454819D01*
X143809524Y-117454819D02*
X144000000Y-116740533D01*
X144000000Y-116740533D02*
X144190476Y-117454819D01*
X144190476Y-117454819D02*
X144428572Y-116454819D01*
X144761905Y-116550057D02*
X144809524Y-116502438D01*
X144809524Y-116502438D02*
X144904762Y-116454819D01*
X144904762Y-116454819D02*
X145142857Y-116454819D01*
X145142857Y-116454819D02*
X145238095Y-116502438D01*
X145238095Y-116502438D02*
X145285714Y-116550057D01*
X145285714Y-116550057D02*
X145333333Y-116645295D01*
X145333333Y-116645295D02*
X145333333Y-116740533D01*
X145333333Y-116740533D02*
X145285714Y-116883390D01*
X145285714Y-116883390D02*
X144714286Y-117454819D01*
X144714286Y-117454819D02*
X145333333Y-117454819D01*
X132294819Y-84333333D02*
X133009104Y-84333333D01*
X133009104Y-84333333D02*
X133151961Y-84380952D01*
X133151961Y-84380952D02*
X133247200Y-84476190D01*
X133247200Y-84476190D02*
X133294819Y-84619047D01*
X133294819Y-84619047D02*
X133294819Y-84714285D01*
X133294819Y-83333333D02*
X133294819Y-83904761D01*
X133294819Y-83619047D02*
X132294819Y-83619047D01*
X132294819Y-83619047D02*
X132437676Y-83714285D01*
X132437676Y-83714285D02*
X132532914Y-83809523D01*
X132532914Y-83809523D02*
X132580533Y-83904761D01*
X132666667Y-117407200D02*
X132809524Y-117454819D01*
X132809524Y-117454819D02*
X133047619Y-117454819D01*
X133047619Y-117454819D02*
X133142857Y-117407200D01*
X133142857Y-117407200D02*
X133190476Y-117359580D01*
X133190476Y-117359580D02*
X133238095Y-117264342D01*
X133238095Y-117264342D02*
X133238095Y-117169104D01*
X133238095Y-117169104D02*
X133190476Y-117073866D01*
X133190476Y-117073866D02*
X133142857Y-117026247D01*
X133142857Y-117026247D02*
X133047619Y-116978628D01*
X133047619Y-116978628D02*
X132857143Y-116931009D01*
X132857143Y-116931009D02*
X132761905Y-116883390D01*
X132761905Y-116883390D02*
X132714286Y-116835771D01*
X132714286Y-116835771D02*
X132666667Y-116740533D01*
X132666667Y-116740533D02*
X132666667Y-116645295D01*
X132666667Y-116645295D02*
X132714286Y-116550057D01*
X132714286Y-116550057D02*
X132761905Y-116502438D01*
X132761905Y-116502438D02*
X132857143Y-116454819D01*
X132857143Y-116454819D02*
X133095238Y-116454819D01*
X133095238Y-116454819D02*
X133238095Y-116502438D01*
X133571429Y-116454819D02*
X133809524Y-117454819D01*
X133809524Y-117454819D02*
X134000000Y-116740533D01*
X134000000Y-116740533D02*
X134190476Y-117454819D01*
X134190476Y-117454819D02*
X134428572Y-116454819D01*
X135333333Y-117454819D02*
X134761905Y-117454819D01*
X135047619Y-117454819D02*
X135047619Y-116454819D01*
X135047619Y-116454819D02*
X134952381Y-116597676D01*
X134952381Y-116597676D02*
X134857143Y-116692914D01*
X134857143Y-116692914D02*
X134761905Y-116740533D01*
X162859580Y-90666666D02*
X162907200Y-90714285D01*
X162907200Y-90714285D02*
X162954819Y-90857142D01*
X162954819Y-90857142D02*
X162954819Y-90952380D01*
X162954819Y-90952380D02*
X162907200Y-91095237D01*
X162907200Y-91095237D02*
X162811961Y-91190475D01*
X162811961Y-91190475D02*
X162716723Y-91238094D01*
X162716723Y-91238094D02*
X162526247Y-91285713D01*
X162526247Y-91285713D02*
X162383390Y-91285713D01*
X162383390Y-91285713D02*
X162192914Y-91238094D01*
X162192914Y-91238094D02*
X162097676Y-91190475D01*
X162097676Y-91190475D02*
X162002438Y-91095237D01*
X162002438Y-91095237D02*
X161954819Y-90952380D01*
X161954819Y-90952380D02*
X161954819Y-90857142D01*
X161954819Y-90857142D02*
X162002438Y-90714285D01*
X162002438Y-90714285D02*
X162050057Y-90666666D01*
X162954819Y-89714285D02*
X162954819Y-90285713D01*
X162954819Y-89999999D02*
X161954819Y-89999999D01*
X161954819Y-89999999D02*
X162097676Y-90095237D01*
X162097676Y-90095237D02*
X162192914Y-90190475D01*
X162192914Y-90190475D02*
X162240533Y-90285713D01*
D11*
X128806666Y-85079271D02*
X128806666Y-83809271D01*
X128806666Y-83809271D02*
X129230000Y-84716414D01*
X129230000Y-84716414D02*
X129653333Y-83809271D01*
X129653333Y-83809271D02*
X129653333Y-85079271D01*
X130258095Y-85079271D02*
X130258095Y-83809271D01*
X130258095Y-84414033D02*
X130983810Y-84414033D01*
X130983810Y-85079271D02*
X130983810Y-83809271D01*
X132132857Y-84232604D02*
X132132857Y-85079271D01*
X131830476Y-83748795D02*
X131528095Y-84655937D01*
X131528095Y-84655937D02*
X132314286Y-84655937D01*
X162806666Y-130579271D02*
X162806666Y-129309271D01*
X162806666Y-129309271D02*
X163230000Y-130216414D01*
X163230000Y-130216414D02*
X163653333Y-129309271D01*
X163653333Y-129309271D02*
X163653333Y-130579271D01*
X164258095Y-130579271D02*
X164258095Y-129309271D01*
X164258095Y-129914033D02*
X164983810Y-129914033D01*
X164983810Y-130579271D02*
X164983810Y-129309271D01*
X166253810Y-130579271D02*
X165528095Y-130579271D01*
X165890952Y-130579271D02*
X165890952Y-129309271D01*
X165890952Y-129309271D02*
X165770000Y-129490699D01*
X165770000Y-129490699D02*
X165649048Y-129611652D01*
X165649048Y-129611652D02*
X165528095Y-129672128D01*
X128806666Y-129579271D02*
X128806666Y-128309271D01*
X128806666Y-128309271D02*
X129230000Y-129216414D01*
X129230000Y-129216414D02*
X129653333Y-128309271D01*
X129653333Y-128309271D02*
X129653333Y-129579271D01*
X130258095Y-129579271D02*
X130258095Y-128309271D01*
X130258095Y-128914033D02*
X130983810Y-128914033D01*
X130983810Y-129579271D02*
X130983810Y-128309271D01*
X131528095Y-128430223D02*
X131588571Y-128369747D01*
X131588571Y-128369747D02*
X131709524Y-128309271D01*
X131709524Y-128309271D02*
X132011905Y-128309271D01*
X132011905Y-128309271D02*
X132132857Y-128369747D01*
X132132857Y-128369747D02*
X132193333Y-128430223D01*
X132193333Y-128430223D02*
X132253810Y-128551175D01*
X132253810Y-128551175D02*
X132253810Y-128672128D01*
X132253810Y-128672128D02*
X132193333Y-128853556D01*
X132193333Y-128853556D02*
X131467619Y-129579271D01*
X131467619Y-129579271D02*
X132253810Y-129579271D01*
D10*
X155285714Y-114931009D02*
X155619047Y-114931009D01*
X155761904Y-115454819D02*
X155285714Y-115454819D01*
X155285714Y-115454819D02*
X155285714Y-114454819D01*
X155285714Y-114454819D02*
X155761904Y-114454819D01*
X156190476Y-115454819D02*
X156190476Y-114454819D01*
X156190476Y-114454819D02*
X156761904Y-115454819D01*
X156761904Y-115454819D02*
X156761904Y-114454819D01*
X157809523Y-115359580D02*
X157761904Y-115407200D01*
X157761904Y-115407200D02*
X157619047Y-115454819D01*
X157619047Y-115454819D02*
X157523809Y-115454819D01*
X157523809Y-115454819D02*
X157380952Y-115407200D01*
X157380952Y-115407200D02*
X157285714Y-115311961D01*
X157285714Y-115311961D02*
X157238095Y-115216723D01*
X157238095Y-115216723D02*
X157190476Y-115026247D01*
X157190476Y-115026247D02*
X157190476Y-114883390D01*
X157190476Y-114883390D02*
X157238095Y-114692914D01*
X157238095Y-114692914D02*
X157285714Y-114597676D01*
X157285714Y-114597676D02*
X157380952Y-114502438D01*
X157380952Y-114502438D02*
X157523809Y-114454819D01*
X157523809Y-114454819D02*
X157619047Y-114454819D01*
X157619047Y-114454819D02*
X157761904Y-114502438D01*
X157761904Y-114502438D02*
X157809523Y-114550057D01*
X158761904Y-115454819D02*
X158190476Y-115454819D01*
X158476190Y-115454819D02*
X158476190Y-114454819D01*
X158476190Y-114454819D02*
X158380952Y-114597676D01*
X158380952Y-114597676D02*
X158285714Y-114692914D01*
X158285714Y-114692914D02*
X158190476Y-114740533D01*
D11*
X162806666Y-85079271D02*
X162806666Y-83809271D01*
X162806666Y-83809271D02*
X163230000Y-84716414D01*
X163230000Y-84716414D02*
X163653333Y-83809271D01*
X163653333Y-83809271D02*
X163653333Y-85079271D01*
X164258095Y-85079271D02*
X164258095Y-83809271D01*
X164258095Y-84414033D02*
X164983810Y-84414033D01*
X164983810Y-85079271D02*
X164983810Y-83809271D01*
X165467619Y-83809271D02*
X166253810Y-83809271D01*
X166253810Y-83809271D02*
X165830476Y-84293080D01*
X165830476Y-84293080D02*
X166011905Y-84293080D01*
X166011905Y-84293080D02*
X166132857Y-84353556D01*
X166132857Y-84353556D02*
X166193333Y-84414033D01*
X166193333Y-84414033D02*
X166253810Y-84534985D01*
X166253810Y-84534985D02*
X166253810Y-84837366D01*
X166253810Y-84837366D02*
X166193333Y-84958318D01*
X166193333Y-84958318D02*
X166132857Y-85018795D01*
X166132857Y-85018795D02*
X166011905Y-85079271D01*
X166011905Y-85079271D02*
X165649048Y-85079271D01*
X165649048Y-85079271D02*
X165528095Y-85018795D01*
X165528095Y-85018795D02*
X165467619Y-84958318D01*
%TO.C,C1*%
D12*
X163630000Y-87880000D02*
X163967000Y-87880000D01*
X163630000Y-93120000D02*
X163630000Y-87880000D01*
X163967000Y-93120000D02*
X163630000Y-93120000D01*
X166033000Y-87880000D02*
X166370000Y-87880000D01*
X166370000Y-87880000D02*
X166370000Y-93120000D01*
X166370000Y-93120000D02*
X166033000Y-93120000D01*
%TD*%
M02*
