%TF.GenerationSoftware,KiCad,Pcbnew,10.0.6-1.fc44*%
%TF.CreationDate,2026-09-22T11:54:47-07:00*%
%TF.ProjectId,desk-sm-pcb,6465736b-2d73-46d2-9d70-63622e6b6963,rev?*%
%TF.SameCoordinates,Original*%
%TF.FileFunction,Copper,L2,Bot*%
%TF.FilePolarity,Positive*%
%FSLAX46Y46*%
G04 Gerber Fmt 4.6, Leading zero omitted, Abs format (unit mm)*
G04 Created by KiCad (PCBNEW 10.0.6-1.fc44) date 2026-09-22 11:54:47*
%MOMM*%
%LPD*%
G01*
G04 APERTURE LIST*
G04 Aperture macros list*
%AMRoundRect*
0 Rectangle with rounded corners*
0 $1 Rounding radius*
0 $2 $3 $4 $5 $6 $7 $8 $9 X,Y pos of 4 corners*
0 Add a 4 corners polygon primitive as box body*
4,1,4,$2,$3,$4,$5,$6,$7,$8,$9,$2,$3,0*
0 Add four circle primitives for the rounded corners*
1,1,$1+$1,$2,$3*
1,1,$1+$1,$4,$5*
1,1,$1+$1,$6,$7*
1,1,$1+$1,$8,$9*
0 Add four rect primitives between the rounded corners*
20,1,$1+$1,$2,$3,$4,$5,0*
20,1,$1+$1,$4,$5,$6,$7,0*
20,1,$1+$1,$6,$7,$8,$9,0*
20,1,$1+$1,$8,$9,$2,$3,0*%
G04 Aperture macros list end*
%TA.AperFunction,ComponentPad*%
%ADD10R,1.700000X1.700000*%
%TD*%
%TA.AperFunction,ComponentPad*%
%ADD11C,1.700000*%
%TD*%
%TA.AperFunction,ComponentPad*%
%ADD12C,1.600000*%
%TD*%
%TA.AperFunction,SMDPad,CuDef*%
%ADD13RoundRect,0.500000X0.500000X-0.875000X0.500000X0.875000X-0.500000X0.875000X-0.500000X-0.875000X0*%
%TD*%
%TA.AperFunction,SMDPad,CuDef*%
%ADD14C,1.700000*%
%TD*%
%TA.AperFunction,SMDPad,CuDef*%
%ADD15RoundRect,0.275000X-0.275000X0.975000X-0.275000X-0.975000X0.275000X-0.975000X0.275000X0.975000X0*%
%TD*%
%TA.AperFunction,SMDPad,CuDef*%
%ADD16RoundRect,0.625000X0.625000X-0.750000X0.625000X0.750000X-0.625000X0.750000X-0.625000X-0.750000X0*%
%TD*%
%TA.AperFunction,ViaPad*%
%ADD17C,0.600000*%
%TD*%
%TA.AperFunction,Conductor*%
%ADD18C,0.200000*%
%TD*%
G04 APERTURE END LIST*
D10*
%TO.P,SW2,1*%
%TO.N,KEY2*%
X140750000Y-119250000D03*
D11*
X147250000Y-119250000D03*
%TO.P,SW2,2*%
%TO.N,GND*%
X140750000Y-123750000D03*
X147250000Y-123750000D03*
%TD*%
D10*
%TO.P,J1,1*%
%TO.N,+3V3*%
X135380000Y-84000000D03*
D11*
%TO.P,J1,2*%
%TO.N,N/C*%
X137920000Y-84000000D03*
%TO.P,J1,3*%
%TO.N,TFT_DC*%
X140460000Y-84000000D03*
%TO.P,J1,4*%
%TO.N,TFT_RST*%
X143000000Y-84000000D03*
%TO.P,J1,5*%
%TO.N,TFT_CS*%
X145540000Y-84000000D03*
%TO.P,J1,6*%
%TO.N,SPI_MOSI*%
X148080000Y-84000000D03*
%TO.P,J1,7*%
%TO.N,N/C*%
X150620000Y-84000000D03*
%TO.P,J1,8*%
%TO.N,SPI_SCK*%
X153160000Y-84000000D03*
%TO.P,J1,9*%
%TO.N,GND*%
X155700000Y-84000000D03*
%TO.P,J1,10*%
%TO.N,N/C*%
X158240000Y-84000000D03*
%TO.P,J1,11*%
%TO.N,+3V3*%
X160780000Y-84000000D03*
%TD*%
D10*
%TO.P,SW1,1*%
%TO.N,KEY1*%
X130750000Y-119250000D03*
D11*
X137250000Y-119250000D03*
%TO.P,SW1,2*%
%TO.N,GND*%
X130750000Y-123750000D03*
X137250000Y-123750000D03*
%TD*%
D12*
%TO.P,C1,1*%
%TO.N,+3V3*%
X165000000Y-93000000D03*
%TO.P,C1,2*%
%TO.N,GND*%
X165000000Y-88000000D03*
%TD*%
D10*
%TO.P,ENC1,A,A_A*%
%TO.N,ENC_A*%
X150500000Y-124500000D03*
D11*
%TO.P,ENC1,B,B_B*%
%TO.N,ENC_B*%
X150500000Y-119500000D03*
%TO.P,ENC1,C,C_C*%
%TO.N,GND*%
X150500000Y-122000000D03*
%TO.P,ENC1,S1,S1_S1*%
%TO.N,ENC_PUSH*%
X163500000Y-124500000D03*
%TO.P,ENC1,S2,S2_S2*%
%TO.N,GND*%
X163500000Y-119500000D03*
%TD*%
D13*
%TO.P,U1,1*%
%TO.N,KEY1*%
X130392000Y-91215000D03*
%TO.P,U1,2*%
%TO.N,TFT_CS*%
X132932000Y-91215000D03*
%TO.P,U1,3*%
%TO.N,TFT_DC*%
X135472000Y-91215000D03*
%TO.P,U1,4*%
%TO.N,TFT_RST*%
X138012000Y-91215000D03*
%TO.P,U1,5*%
%TO.N,KEY2*%
X140552000Y-91215000D03*
%TO.P,U1,6*%
%TO.N,ENC_A*%
X143092000Y-91215000D03*
%TO.P,U1,7*%
%TO.N,ENC_B*%
X145632000Y-91215000D03*
%TO.P,U1,8*%
%TO.N,ENC_PUSH*%
X145632000Y-107380000D03*
%TO.P,U1,9*%
%TO.N,SPI_SCK*%
X143092000Y-107380000D03*
%TO.P,U1,10*%
%TO.N,N/C*%
X140552000Y-107380000D03*
%TO.P,U1,11*%
%TO.N,SPI_MOSI*%
X138012000Y-107380000D03*
%TO.P,U1,12*%
%TO.N,+3V3*%
X135472000Y-107380000D03*
%TO.P,U1,13*%
%TO.N,GND*%
X132932000Y-107380000D03*
%TO.P,U1,14*%
%TO.N,N/C*%
X130392000Y-107380000D03*
D14*
%TO.P,U1,15*%
X129380000Y-98000000D03*
%TO.P,U1,16*%
X129380000Y-100540000D03*
%TO.P,U1,17*%
X131920000Y-98000000D03*
%TO.P,U1,18*%
X131920000Y-100540000D03*
%TO.P,U1,19*%
X134460000Y-98000000D03*
%TO.P,U1,20*%
X134460000Y-100540000D03*
%TO.P,U1,21*%
X137000000Y-98000000D03*
%TO.P,U1,22*%
X137000000Y-100540000D03*
D15*
%TO.P,U1,23*%
X137630000Y-94825000D03*
%TO.P,U1,24*%
X135725000Y-94825000D03*
D16*
%TO.P,U1,25*%
X140012000Y-100390000D03*
%TD*%
D17*
%TO.N,+3V3*%
X135000000Y-103250000D03*
%TO.N,KEY2*%
X142000000Y-101900000D03*
X141750000Y-112900000D03*
%TO.N,TFT_CS*%
X144500000Y-86100000D03*
X139000000Y-86100000D03*
%TO.N,KEY1*%
X130750000Y-101750000D03*
%TO.N,ENC_A*%
X149000000Y-112900000D03*
X144750000Y-101750000D03*
%TO.N,ENC_B*%
X146750000Y-101500000D03*
X150500000Y-112900000D03*
%TO.N,ENC_PUSH*%
X152250000Y-102250000D03*
X160750000Y-112750000D03*
%TD*%
%TO.N,+3V3*%
D18*
X135500000Y-105500000D02*
X135472000Y-105528000D01*
X135000000Y-103250000D02*
X134750000Y-103500000D01*
X134750000Y-104750000D02*
X135500000Y-105500000D01*
X134750000Y-103500000D02*
X134750000Y-104750000D01*
X135472000Y-105528000D02*
X135472000Y-107380000D01*
%TO.N,KEY2*%
X140552000Y-91215000D02*
X140552000Y-97052000D01*
X141750000Y-112900000D02*
X141750000Y-116750000D01*
X140750000Y-119250000D02*
X147250000Y-119250000D01*
X141750000Y-116750000D02*
X140750000Y-117750000D01*
X140552000Y-97052000D02*
X142000000Y-98500000D01*
X142000000Y-98500000D02*
X142000000Y-101900000D01*
X140750000Y-117750000D02*
X140750000Y-119250000D01*
%TO.N,+3V3*%
X135472000Y-107380000D02*
X137147000Y-109055000D01*
X135472000Y-107380000D02*
X139592000Y-111500000D01*
X139592000Y-111500000D02*
X148000000Y-111500000D01*
X165000000Y-94500000D02*
X165000000Y-93000000D01*
X160780000Y-94745642D02*
X160780000Y-84000000D01*
X135500000Y-84120000D02*
X135380000Y-84000000D01*
X137147000Y-109055000D02*
X146470642Y-109055000D01*
X148000000Y-111500000D02*
X165000000Y-94500000D01*
X146470642Y-109055000D02*
X160780000Y-94745642D01*
%TO.N,TFT_DC*%
X140460000Y-86540000D02*
X140460000Y-84000000D01*
X139500000Y-87500000D02*
X140460000Y-86540000D01*
X137000000Y-87500000D02*
X139500000Y-87500000D01*
X135472000Y-91215000D02*
X135472000Y-89028000D01*
X135472000Y-89028000D02*
X137000000Y-87500000D01*
%TO.N,TFT_RST*%
X142500000Y-88500000D02*
X143000000Y-88000000D01*
X138012000Y-91215000D02*
X138012000Y-90488000D01*
X140000000Y-88500000D02*
X142500000Y-88500000D01*
X138012000Y-90488000D02*
X140000000Y-88500000D01*
X143000000Y-88000000D02*
X143000000Y-84000000D01*
%TO.N,TFT_CS*%
X146000000Y-84460000D02*
X145540000Y-84000000D01*
X144600000Y-86000000D02*
X145500000Y-86000000D01*
X146000000Y-85500000D02*
X146000000Y-84460000D01*
X132932000Y-87068000D02*
X133900000Y-86100000D01*
X144500000Y-86100000D02*
X144600000Y-86000000D01*
X133900000Y-86100000D02*
X139000000Y-86100000D01*
X132932000Y-91215000D02*
X132932000Y-87068000D01*
X145500000Y-86000000D02*
X146000000Y-85500000D01*
%TO.N,SPI_MOSI*%
X138012000Y-105012000D02*
X138000000Y-105000000D01*
X140000000Y-102500000D02*
X147500000Y-102500000D01*
X147500000Y-102500000D02*
X148080000Y-101920000D01*
X138000000Y-105000000D02*
X138000000Y-104500000D01*
X138012000Y-107380000D02*
X138012000Y-105012000D01*
X148080000Y-101920000D02*
X148080000Y-84000000D01*
X138000000Y-104500000D02*
X140000000Y-102500000D01*
%TO.N,SPI_SCK*%
X143000000Y-107288000D02*
X143000000Y-103500000D01*
X153160000Y-97840000D02*
X153160000Y-84000000D01*
X147500000Y-103500000D02*
X153160000Y-97840000D01*
X143000000Y-103500000D02*
X147500000Y-103500000D01*
X143092000Y-107380000D02*
X143000000Y-107288000D01*
%TO.N,KEY1*%
X130392000Y-91215000D02*
X130750000Y-91573000D01*
X130750000Y-119250000D02*
X137250000Y-119250000D01*
X130750000Y-91573000D02*
X130750000Y-101750000D01*
%TO.N,ENC_A*%
X143092000Y-100092000D02*
X144750000Y-101750000D01*
X143092000Y-91215000D02*
X143092000Y-100092000D01*
X149000000Y-124750000D02*
X149250000Y-125000000D01*
X149250000Y-125000000D02*
X149750000Y-124500000D01*
X149000000Y-112900000D02*
X149000000Y-124750000D01*
X149750000Y-124500000D02*
X150500000Y-124500000D01*
%TO.N,ENC_B*%
X145632000Y-100382000D02*
X146750000Y-101500000D01*
X150500000Y-112900000D02*
X150500000Y-119500000D01*
X145632000Y-91215000D02*
X145632000Y-100382000D01*
%TO.N,ENC_PUSH*%
X165500000Y-123750000D02*
X164750000Y-124500000D01*
X147120000Y-107380000D02*
X152250000Y-102250000D01*
X145632000Y-107380000D02*
X147120000Y-107380000D01*
X160750000Y-112750000D02*
X163500000Y-112750000D01*
X164750000Y-124500000D02*
X163500000Y-124500000D01*
X163500000Y-112750000D02*
X165500000Y-114750000D01*
X165500000Y-114750000D02*
X165500000Y-123750000D01*
%TD*%
%TA.AperFunction,Conductor*%
%TO.N,GND*%
G36*
X150034075Y-122192993D02*
G01*
X150099901Y-122307007D01*
X150192993Y-122400099D01*
X150307007Y-122465925D01*
X150370589Y-122482962D01*
X149738282Y-123115269D01*
X149738282Y-123115270D01*
X149792440Y-123154619D01*
X149792446Y-123154623D01*
X149905624Y-123212290D01*
X149948889Y-123255555D01*
X149958460Y-123315987D01*
X149930683Y-123370504D01*
X149876166Y-123398281D01*
X149860679Y-123399500D01*
X149625326Y-123399500D01*
X149625325Y-123399500D01*
X149625315Y-123399501D01*
X149552263Y-123414033D01*
X149552261Y-123414033D01*
X149552260Y-123414034D01*
X149552258Y-123414034D01*
X149552254Y-123414037D01*
X149504500Y-123445944D01*
X149445611Y-123462552D01*
X149388208Y-123441373D01*
X149354216Y-123390499D01*
X149350500Y-123363628D01*
X149350500Y-122836953D01*
X149369407Y-122778762D01*
X149379496Y-122766949D01*
X150017037Y-122129407D01*
X150034075Y-122192993D01*
G37*
%TD.AperFunction*%
%TA.AperFunction,Conductor*%
G36*
X149529593Y-120022212D02*
G01*
X149537710Y-120035459D01*
X149558765Y-120076783D01*
X149558765Y-120076784D01*
X149558766Y-120076785D01*
X149558768Y-120076788D01*
X149660586Y-120216928D01*
X149783072Y-120339414D01*
X149923212Y-120441232D01*
X150077555Y-120519873D01*
X150077557Y-120519873D01*
X150077558Y-120519874D01*
X150077561Y-120519876D01*
X150092334Y-120524676D01*
X150141834Y-120560640D01*
X150160741Y-120618831D01*
X150141833Y-120677021D01*
X150092334Y-120712985D01*
X149981784Y-120748904D01*
X149792446Y-120845376D01*
X149792442Y-120845378D01*
X149738282Y-120884728D01*
X150370591Y-121517037D01*
X150307007Y-121534075D01*
X150192993Y-121599901D01*
X150099901Y-121692993D01*
X150034075Y-121807007D01*
X150017037Y-121870590D01*
X149379496Y-121233048D01*
X149351719Y-121178532D01*
X149350500Y-121163045D01*
X149350500Y-120080403D01*
X149369407Y-120022212D01*
X149418907Y-119986248D01*
X149480093Y-119986248D01*
X149529593Y-120022212D01*
G37*
%TD.AperFunction*%
%TA.AperFunction,Conductor*%
G36*
X166958691Y-82019407D02*
G01*
X166994655Y-82068907D01*
X166999500Y-82099500D01*
X166999500Y-131400500D01*
X166980593Y-131458691D01*
X166931093Y-131494655D01*
X166900500Y-131499500D01*
X164880385Y-131499500D01*
X164822194Y-131480593D01*
X164786230Y-131431093D01*
X164786230Y-131369907D01*
X164822194Y-131320407D01*
X164849790Y-131306345D01*
X165018412Y-131251557D01*
X165207816Y-131155051D01*
X165379792Y-131030104D01*
X165530104Y-130879792D01*
X165655051Y-130707816D01*
X165751557Y-130518412D01*
X165817246Y-130316243D01*
X165817247Y-130316238D01*
X165850500Y-130106290D01*
X165850500Y-129893709D01*
X165817247Y-129683761D01*
X165817246Y-129683757D01*
X165751557Y-129481588D01*
X165655051Y-129292184D01*
X165655049Y-129292180D01*
X165530108Y-129120213D01*
X165530106Y-129120211D01*
X165530104Y-129120208D01*
X165379792Y-128969896D01*
X165379788Y-128969893D01*
X165379786Y-128969891D01*
X165207819Y-128844950D01*
X165207815Y-128844948D01*
X165018412Y-128748443D01*
X164816238Y-128682752D01*
X164606290Y-128649500D01*
X164606287Y-128649500D01*
X164393713Y-128649500D01*
X164393710Y-128649500D01*
X164183761Y-128682752D01*
X163981587Y-128748443D01*
X163792184Y-128844948D01*
X163792180Y-128844950D01*
X163620213Y-128969891D01*
X163469891Y-129120213D01*
X163344950Y-129292180D01*
X163344948Y-129292184D01*
X163248443Y-129481587D01*
X163182752Y-129683761D01*
X163149500Y-129893709D01*
X163149500Y-130106290D01*
X163182752Y-130316238D01*
X163248443Y-130518412D01*
X163344948Y-130707815D01*
X163344950Y-130707819D01*
X163469891Y-130879786D01*
X163469893Y-130879788D01*
X163469896Y-130879792D01*
X163620208Y-131030104D01*
X163620211Y-131030106D01*
X163620213Y-131030108D01*
X163792180Y-131155049D01*
X163792184Y-131155051D01*
X163981588Y-131251557D01*
X164150208Y-131306345D01*
X164199708Y-131342309D01*
X164218615Y-131400500D01*
X164199708Y-131458691D01*
X164150208Y-131494655D01*
X164119615Y-131499500D01*
X128099500Y-131499500D01*
X128041309Y-131480593D01*
X128005345Y-131431093D01*
X128000500Y-131400500D01*
X128000500Y-128893709D01*
X129149500Y-128893709D01*
X129149500Y-129106290D01*
X129182752Y-129316238D01*
X129248443Y-129518412D01*
X129344948Y-129707815D01*
X129344950Y-129707819D01*
X129469891Y-129879786D01*
X129469893Y-129879788D01*
X129469896Y-129879792D01*
X129620208Y-130030104D01*
X129620211Y-130030106D01*
X129620213Y-130030108D01*
X129792180Y-130155049D01*
X129792184Y-130155051D01*
X129981588Y-130251557D01*
X130183757Y-130317246D01*
X130183758Y-130317246D01*
X130183761Y-130317247D01*
X130393710Y-130350500D01*
X130393713Y-130350500D01*
X130606290Y-130350500D01*
X130816238Y-130317247D01*
X130816239Y-130317246D01*
X130816243Y-130317246D01*
X131018412Y-130251557D01*
X131207816Y-130155051D01*
X131379792Y-130030104D01*
X131530104Y-129879792D01*
X131655051Y-129707816D01*
X131751557Y-129518412D01*
X131817246Y-129316243D01*
X131821057Y-129292180D01*
X131850500Y-129106290D01*
X131850500Y-128893709D01*
X131817247Y-128683761D01*
X131806115Y-128649500D01*
X131751557Y-128481588D01*
X131655051Y-128292184D01*
X131655049Y-128292180D01*
X131530108Y-128120213D01*
X131530106Y-128120211D01*
X131530104Y-128120208D01*
X131379792Y-127969896D01*
X131379788Y-127969893D01*
X131379786Y-127969891D01*
X131207819Y-127844950D01*
X131207815Y-127844948D01*
X131018412Y-127748443D01*
X130816238Y-127682752D01*
X130606290Y-127649500D01*
X130606287Y-127649500D01*
X130393713Y-127649500D01*
X130393710Y-127649500D01*
X130183761Y-127682752D01*
X129981587Y-127748443D01*
X129792184Y-127844948D01*
X129792180Y-127844950D01*
X129620213Y-127969891D01*
X129469891Y-128120213D01*
X129344950Y-128292180D01*
X129344948Y-128292184D01*
X129248443Y-128481587D01*
X129182752Y-128683761D01*
X129149500Y-128893709D01*
X128000500Y-128893709D01*
X128000500Y-123643749D01*
X129400000Y-123643749D01*
X129400000Y-123856250D01*
X129433240Y-124066121D01*
X129498904Y-124268215D01*
X129595376Y-124457553D01*
X129595380Y-124457559D01*
X129634728Y-124511716D01*
X129634729Y-124511716D01*
X130307861Y-123838583D01*
X130330667Y-123923694D01*
X130389910Y-124026306D01*
X130473694Y-124110090D01*
X130576306Y-124169333D01*
X130661414Y-124192137D01*
X129988282Y-124865269D01*
X129988282Y-124865270D01*
X130042440Y-124904619D01*
X130042446Y-124904623D01*
X130231784Y-125001095D01*
X130433878Y-125066759D01*
X130643750Y-125100000D01*
X130856250Y-125100000D01*
X131066121Y-125066759D01*
X131268215Y-125001095D01*
X131457556Y-124904620D01*
X131511716Y-124865270D01*
X130838584Y-124192138D01*
X130923694Y-124169333D01*
X131026306Y-124110090D01*
X131110090Y-124026306D01*
X131169333Y-123923694D01*
X131192138Y-123838584D01*
X131865270Y-124511716D01*
X131904620Y-124457556D01*
X132001095Y-124268215D01*
X132066759Y-124066121D01*
X132100000Y-123856250D01*
X132100000Y-123643749D01*
X135900000Y-123643749D01*
X135900000Y-123856250D01*
X135933240Y-124066121D01*
X135998904Y-124268215D01*
X136095376Y-124457553D01*
X136095380Y-124457559D01*
X136134728Y-124511716D01*
X136134729Y-124511716D01*
X136807861Y-123838583D01*
X136830667Y-123923694D01*
X136889910Y-124026306D01*
X136973694Y-124110090D01*
X137076306Y-124169333D01*
X137161414Y-124192137D01*
X136488282Y-124865269D01*
X136488282Y-124865270D01*
X136542440Y-124904619D01*
X136542446Y-124904623D01*
X136731784Y-125001095D01*
X136933878Y-125066759D01*
X137143750Y-125100000D01*
X137356250Y-125100000D01*
X137566121Y-125066759D01*
X137768215Y-125001095D01*
X137957556Y-124904620D01*
X138011716Y-124865270D01*
X137338584Y-124192138D01*
X137423694Y-124169333D01*
X137526306Y-124110090D01*
X137610090Y-124026306D01*
X137669333Y-123923694D01*
X137692138Y-123838584D01*
X138365270Y-124511716D01*
X138404620Y-124457556D01*
X138501095Y-124268215D01*
X138566759Y-124066121D01*
X138600000Y-123856250D01*
X138600000Y-123643749D01*
X139400000Y-123643749D01*
X139400000Y-123856250D01*
X139433240Y-124066121D01*
X139498904Y-124268215D01*
X139595376Y-124457553D01*
X139595380Y-124457559D01*
X139634728Y-124511716D01*
X139634729Y-124511716D01*
X140307861Y-123838583D01*
X140330667Y-123923694D01*
X140389910Y-124026306D01*
X140473694Y-124110090D01*
X140576306Y-124169333D01*
X140661414Y-124192137D01*
X139988282Y-124865269D01*
X139988282Y-124865270D01*
X140042440Y-124904619D01*
X140042446Y-124904623D01*
X140231784Y-125001095D01*
X140433878Y-125066759D01*
X140643750Y-125100000D01*
X140856250Y-125100000D01*
X141066121Y-125066759D01*
X141268215Y-125001095D01*
X141457556Y-124904620D01*
X141511716Y-124865270D01*
X140838584Y-124192138D01*
X140923694Y-124169333D01*
X141026306Y-124110090D01*
X141110090Y-124026306D01*
X141169333Y-123923694D01*
X141192138Y-123838584D01*
X141865270Y-124511716D01*
X141904620Y-124457556D01*
X142001095Y-124268215D01*
X142066759Y-124066121D01*
X142100000Y-123856250D01*
X142100000Y-123643749D01*
X145900000Y-123643749D01*
X145900000Y-123856250D01*
X145933240Y-124066121D01*
X145998904Y-124268215D01*
X146095376Y-124457553D01*
X146095380Y-124457559D01*
X146134728Y-124511716D01*
X146134729Y-124511716D01*
X146807861Y-123838583D01*
X146830667Y-123923694D01*
X146889910Y-124026306D01*
X146973694Y-124110090D01*
X147076306Y-124169333D01*
X147161414Y-124192137D01*
X146488282Y-124865269D01*
X146488282Y-124865270D01*
X146542440Y-124904619D01*
X146542446Y-124904623D01*
X146731784Y-125001095D01*
X146933878Y-125066759D01*
X147143750Y-125100000D01*
X147356250Y-125100000D01*
X147566121Y-125066759D01*
X147768215Y-125001095D01*
X147957556Y-124904620D01*
X148011716Y-124865270D01*
X147338584Y-124192138D01*
X147423694Y-124169333D01*
X147526306Y-124110090D01*
X147610090Y-124026306D01*
X147669333Y-123923694D01*
X147692138Y-123838584D01*
X148365270Y-124511716D01*
X148404620Y-124457556D01*
X148462290Y-124344374D01*
X148505555Y-124301109D01*
X148565987Y-124291538D01*
X148620504Y-124319315D01*
X148648281Y-124373832D01*
X148649500Y-124389319D01*
X148649500Y-124796143D01*
X148664065Y-124850500D01*
X148664065Y-124850501D01*
X148673384Y-124885284D01*
X148673385Y-124885286D01*
X148673386Y-124885288D01*
X148719530Y-124965212D01*
X148719532Y-124965214D01*
X148969527Y-125215210D01*
X148969528Y-125215210D01*
X148969530Y-125215212D01*
X148969529Y-125215212D01*
X149034785Y-125280467D01*
X149034788Y-125280470D01*
X149114712Y-125326614D01*
X149114714Y-125326614D01*
X149114715Y-125326615D01*
X149133554Y-125331662D01*
X149203856Y-125350499D01*
X149203857Y-125350499D01*
X149296137Y-125350499D01*
X149296144Y-125350499D01*
X149296150Y-125350497D01*
X149300236Y-125349959D01*
X149360398Y-125361104D01*
X149402520Y-125405482D01*
X149410265Y-125428794D01*
X149414033Y-125447738D01*
X149414035Y-125447742D01*
X149469397Y-125530599D01*
X149469399Y-125530601D01*
X149552260Y-125585966D01*
X149607808Y-125597015D01*
X149625315Y-125600498D01*
X149625320Y-125600498D01*
X149625326Y-125600500D01*
X149625327Y-125600500D01*
X151374673Y-125600500D01*
X151374674Y-125600500D01*
X151447740Y-125585966D01*
X151530601Y-125530601D01*
X151585966Y-125447740D01*
X151600500Y-125374674D01*
X151600500Y-123625326D01*
X151585966Y-123552260D01*
X151537768Y-123480125D01*
X151530602Y-123469400D01*
X151530599Y-123469397D01*
X151447742Y-123414035D01*
X151447740Y-123414034D01*
X151447737Y-123414033D01*
X151447736Y-123414033D01*
X151374684Y-123399501D01*
X151374674Y-123399500D01*
X151139320Y-123399500D01*
X151081129Y-123380593D01*
X151045165Y-123331093D01*
X151045165Y-123269907D01*
X151081129Y-123220407D01*
X151094375Y-123212290D01*
X151207556Y-123154620D01*
X151261716Y-123115270D01*
X150629408Y-122482962D01*
X150692993Y-122465925D01*
X150807007Y-122400099D01*
X150900099Y-122307007D01*
X150965925Y-122192993D01*
X150982962Y-122129408D01*
X151615270Y-122761716D01*
X151654620Y-122707556D01*
X151751095Y-122518215D01*
X151816759Y-122316121D01*
X151850000Y-122106250D01*
X151850000Y-121893749D01*
X151816759Y-121683878D01*
X151751095Y-121481784D01*
X151654623Y-121292446D01*
X151654619Y-121292440D01*
X151615270Y-121238282D01*
X151615269Y-121238282D01*
X150982962Y-121870589D01*
X150965925Y-121807007D01*
X150900099Y-121692993D01*
X150807007Y-121599901D01*
X150692993Y-121534075D01*
X150629407Y-121517037D01*
X151261716Y-120884729D01*
X151261716Y-120884728D01*
X151207559Y-120845380D01*
X151207553Y-120845376D01*
X151018213Y-120748903D01*
X150907666Y-120712985D01*
X150887487Y-120698324D01*
X150865700Y-120686183D01*
X150863122Y-120680623D01*
X150858165Y-120677021D01*
X150850457Y-120653297D01*
X150839969Y-120630671D01*
X150841151Y-120624658D01*
X150839258Y-120618830D01*
X150846965Y-120595107D01*
X150851780Y-120570637D01*
X150856060Y-120567116D01*
X150858165Y-120560639D01*
X150896623Y-120529010D01*
X150902010Y-120526512D01*
X150922445Y-120519873D01*
X151076788Y-120441232D01*
X151216928Y-120339414D01*
X151339414Y-120216928D01*
X151441232Y-120076788D01*
X151519873Y-119922445D01*
X151519874Y-119922440D01*
X151519876Y-119922438D01*
X151573401Y-119757706D01*
X151573402Y-119757702D01*
X151600500Y-119586614D01*
X151600500Y-119413388D01*
X151599227Y-119405352D01*
X151599227Y-119405350D01*
X151597390Y-119393749D01*
X162150000Y-119393749D01*
X162150000Y-119606250D01*
X162183240Y-119816121D01*
X162248904Y-120018215D01*
X162345376Y-120207553D01*
X162345380Y-120207559D01*
X162384728Y-120261716D01*
X162384729Y-120261716D01*
X163017037Y-119629407D01*
X163034075Y-119692993D01*
X163099901Y-119807007D01*
X163192993Y-119900099D01*
X163307007Y-119965925D01*
X163370589Y-119982962D01*
X162738282Y-120615269D01*
X162738282Y-120615270D01*
X162792440Y-120654619D01*
X162792446Y-120654623D01*
X162981784Y-120751095D01*
X163183878Y-120816759D01*
X163393750Y-120850000D01*
X163606250Y-120850000D01*
X163816121Y-120816759D01*
X164018215Y-120751095D01*
X164207556Y-120654620D01*
X164261716Y-120615270D01*
X163629408Y-119982962D01*
X163692993Y-119965925D01*
X163807007Y-119900099D01*
X163900099Y-119807007D01*
X163965925Y-119692993D01*
X163982962Y-119629408D01*
X164615270Y-120261716D01*
X164654620Y-120207556D01*
X164751095Y-120018215D01*
X164816759Y-119816121D01*
X164850000Y-119606250D01*
X164850000Y-119393749D01*
X164816759Y-119183878D01*
X164751095Y-118981784D01*
X164654623Y-118792446D01*
X164654619Y-118792440D01*
X164615270Y-118738282D01*
X164615269Y-118738282D01*
X163982962Y-119370589D01*
X163965925Y-119307007D01*
X163900099Y-119192993D01*
X163807007Y-119099901D01*
X163692993Y-119034075D01*
X163629407Y-119017037D01*
X164261716Y-118384729D01*
X164261716Y-118384728D01*
X164207559Y-118345380D01*
X164207553Y-118345376D01*
X164018215Y-118248904D01*
X163816121Y-118183240D01*
X163606250Y-118150000D01*
X163393750Y-118150000D01*
X163183878Y-118183240D01*
X162981784Y-118248904D01*
X162792446Y-118345376D01*
X162792442Y-118345378D01*
X162738282Y-118384728D01*
X163370591Y-119017037D01*
X163307007Y-119034075D01*
X163192993Y-119099901D01*
X163099901Y-119192993D01*
X163034075Y-119307007D01*
X163017037Y-119370591D01*
X162384728Y-118738282D01*
X162345378Y-118792442D01*
X162345376Y-118792446D01*
X162248904Y-118981784D01*
X162183240Y-119183878D01*
X162150000Y-119393749D01*
X151597390Y-119393749D01*
X151573402Y-119242297D01*
X151573401Y-119242293D01*
X151519876Y-119077561D01*
X151519874Y-119077558D01*
X151519873Y-119077557D01*
X151519873Y-119077555D01*
X151441232Y-118923212D01*
X151339414Y-118783072D01*
X151216928Y-118660586D01*
X151076788Y-118558768D01*
X151076787Y-118558767D01*
X151076785Y-118558766D01*
X150983290Y-118511129D01*
X150922445Y-118480127D01*
X150912483Y-118476890D01*
X150906403Y-118473950D01*
X150888958Y-118457218D01*
X150869406Y-118443011D01*
X150867259Y-118436404D01*
X150862246Y-118431596D01*
X150857968Y-118407809D01*
X150850500Y-118384823D01*
X150850500Y-113369031D01*
X150869407Y-113310840D01*
X150879490Y-113299033D01*
X150940509Y-113238015D01*
X151012984Y-113112485D01*
X151050500Y-112972475D01*
X151050500Y-112827525D01*
X151012984Y-112687515D01*
X151012981Y-112687510D01*
X151007216Y-112677525D01*
X160199500Y-112677525D01*
X160199500Y-112822474D01*
X160237017Y-112962489D01*
X160309487Y-113088010D01*
X160309489Y-113088012D01*
X160309491Y-113088015D01*
X160411985Y-113190509D01*
X160411987Y-113190510D01*
X160411989Y-113190512D01*
X160537511Y-113262982D01*
X160537512Y-113262982D01*
X160537515Y-113262984D01*
X160677525Y-113300500D01*
X160677526Y-113300500D01*
X160822474Y-113300500D01*
X160822475Y-113300500D01*
X160962485Y-113262984D01*
X160962487Y-113262982D01*
X160962489Y-113262982D01*
X161088010Y-113190512D01*
X161088010Y-113190511D01*
X161088015Y-113190509D01*
X161118522Y-113160002D01*
X161149029Y-113129496D01*
X161203546Y-113101719D01*
X161219032Y-113100500D01*
X163313810Y-113100500D01*
X163372001Y-113119407D01*
X163383814Y-113129496D01*
X165120504Y-114866186D01*
X165148281Y-114920703D01*
X165149500Y-114936190D01*
X165149500Y-123563810D01*
X165130593Y-123622001D01*
X165120503Y-123633814D01*
X164669180Y-124085136D01*
X164614664Y-124112913D01*
X164554232Y-124103342D01*
X164510968Y-124060078D01*
X164462632Y-123965212D01*
X164441235Y-123923217D01*
X164441234Y-123923215D01*
X164441232Y-123923212D01*
X164339414Y-123783072D01*
X164216928Y-123660586D01*
X164076788Y-123558768D01*
X164076787Y-123558767D01*
X164076785Y-123558766D01*
X163922441Y-123480125D01*
X163922438Y-123480123D01*
X163757706Y-123426598D01*
X163757702Y-123426597D01*
X163586614Y-123399500D01*
X163586611Y-123399500D01*
X163413389Y-123399500D01*
X163413386Y-123399500D01*
X163242297Y-123426597D01*
X163242293Y-123426598D01*
X163077561Y-123480123D01*
X163077558Y-123480125D01*
X162923214Y-123558766D01*
X162783073Y-123660585D01*
X162660585Y-123783073D01*
X162558766Y-123923214D01*
X162480125Y-124077558D01*
X162480123Y-124077561D01*
X162426598Y-124242293D01*
X162426597Y-124242297D01*
X162399500Y-124413385D01*
X162399500Y-124586614D01*
X162426597Y-124757702D01*
X162426598Y-124757706D01*
X162480123Y-124922438D01*
X162480125Y-124922441D01*
X162480126Y-124922444D01*
X162480127Y-124922445D01*
X162558768Y-125076788D01*
X162660586Y-125216928D01*
X162783072Y-125339414D01*
X162923212Y-125441232D01*
X163077555Y-125519873D01*
X163077557Y-125519873D01*
X163077558Y-125519874D01*
X163077561Y-125519876D01*
X163242293Y-125573401D01*
X163242297Y-125573402D01*
X163413386Y-125600500D01*
X163413389Y-125600500D01*
X163586614Y-125600500D01*
X163757702Y-125573402D01*
X163757706Y-125573401D01*
X163922438Y-125519876D01*
X163922440Y-125519874D01*
X163922445Y-125519873D01*
X164076788Y-125441232D01*
X164216928Y-125339414D01*
X164339414Y-125216928D01*
X164441232Y-125076788D01*
X164519873Y-124922445D01*
X164521023Y-124918904D01*
X164556989Y-124869406D01*
X164615177Y-124850500D01*
X164796142Y-124850500D01*
X164796144Y-124850500D01*
X164885288Y-124826614D01*
X164965212Y-124780470D01*
X165780470Y-123965212D01*
X165826614Y-123885288D01*
X165840111Y-123834916D01*
X165850500Y-123796144D01*
X165850500Y-114703856D01*
X165826614Y-114614712D01*
X165780470Y-114534788D01*
X163715212Y-112469530D01*
X163635288Y-112423386D01*
X163546144Y-112399500D01*
X163546142Y-112399500D01*
X161219032Y-112399500D01*
X161160841Y-112380593D01*
X161149029Y-112370504D01*
X161088015Y-112309491D01*
X161088010Y-112309487D01*
X160962488Y-112237017D01*
X160962489Y-112237017D01*
X160932896Y-112229087D01*
X160822475Y-112199500D01*
X160677525Y-112199500D01*
X160615790Y-112216041D01*
X160537510Y-112237017D01*
X160411989Y-112309487D01*
X160309487Y-112411989D01*
X160237017Y-112537510D01*
X160199500Y-112677525D01*
X151007216Y-112677525D01*
X150940512Y-112561989D01*
X150940510Y-112561987D01*
X150940509Y-112561985D01*
X150838015Y-112459491D01*
X150838012Y-112459489D01*
X150838010Y-112459487D01*
X150712488Y-112387017D01*
X150712489Y-112387017D01*
X150650862Y-112370504D01*
X150572475Y-112349500D01*
X150427525Y-112349500D01*
X150365790Y-112366041D01*
X150287510Y-112387017D01*
X150161989Y-112459487D01*
X150059487Y-112561989D01*
X149987017Y-112687510D01*
X149949500Y-112827525D01*
X149949500Y-112972474D01*
X149987017Y-113112489D01*
X150059487Y-113238010D01*
X150059489Y-113238012D01*
X150059491Y-113238015D01*
X150120505Y-113299029D01*
X150148281Y-113353544D01*
X150149500Y-113369031D01*
X150149500Y-118384823D01*
X150130593Y-118443014D01*
X150081095Y-118478976D01*
X150080117Y-118479294D01*
X150077553Y-118480127D01*
X149923214Y-118558766D01*
X149783073Y-118660585D01*
X149660585Y-118783073D01*
X149558766Y-118923214D01*
X149537710Y-118964541D01*
X149494445Y-119007805D01*
X149434013Y-119017377D01*
X149379497Y-118989600D01*
X149351719Y-118935083D01*
X149350500Y-118919596D01*
X149350500Y-113369031D01*
X149369407Y-113310840D01*
X149379490Y-113299033D01*
X149440509Y-113238015D01*
X149512984Y-113112485D01*
X149550500Y-112972475D01*
X149550500Y-112827525D01*
X149512984Y-112687515D01*
X149512982Y-112687511D01*
X149512982Y-112687510D01*
X149440512Y-112561989D01*
X149440510Y-112561987D01*
X149440509Y-112561985D01*
X149338015Y-112459491D01*
X149338012Y-112459489D01*
X149338010Y-112459487D01*
X149212488Y-112387017D01*
X149212489Y-112387017D01*
X149150862Y-112370504D01*
X149072475Y-112349500D01*
X148927525Y-112349500D01*
X148865790Y-112366041D01*
X148787510Y-112387017D01*
X148661989Y-112459487D01*
X148559487Y-112561989D01*
X148487017Y-112687510D01*
X148449500Y-112827525D01*
X148449500Y-112972474D01*
X148487017Y-113112489D01*
X148559487Y-113238010D01*
X148559489Y-113238012D01*
X148559491Y-113238015D01*
X148620505Y-113299029D01*
X148648281Y-113353544D01*
X148649500Y-113369031D01*
X148649500Y-123110679D01*
X148630593Y-123168870D01*
X148581093Y-123204834D01*
X148519907Y-123204834D01*
X148470407Y-123168870D01*
X148462290Y-123155624D01*
X148404623Y-123042446D01*
X148404619Y-123042440D01*
X148365270Y-122988282D01*
X148365269Y-122988282D01*
X147692137Y-123661414D01*
X147669333Y-123576306D01*
X147610090Y-123473694D01*
X147526306Y-123389910D01*
X147423694Y-123330667D01*
X147338583Y-123307861D01*
X148011716Y-122634729D01*
X148011716Y-122634728D01*
X147957559Y-122595380D01*
X147957553Y-122595376D01*
X147768215Y-122498904D01*
X147566121Y-122433240D01*
X147356250Y-122400000D01*
X147143750Y-122400000D01*
X146933878Y-122433240D01*
X146731784Y-122498904D01*
X146542446Y-122595376D01*
X146542442Y-122595378D01*
X146488282Y-122634728D01*
X147161416Y-123307861D01*
X147076306Y-123330667D01*
X146973694Y-123389910D01*
X146889910Y-123473694D01*
X146830667Y-123576306D01*
X146807861Y-123661416D01*
X146134728Y-122988282D01*
X146095378Y-123042442D01*
X146095376Y-123042446D01*
X145998904Y-123231784D01*
X145933240Y-123433878D01*
X145900000Y-123643749D01*
X142100000Y-123643749D01*
X142066759Y-123433878D01*
X142001095Y-123231784D01*
X141904623Y-123042446D01*
X141904619Y-123042440D01*
X141865270Y-122988282D01*
X141865269Y-122988282D01*
X141192137Y-123661414D01*
X141169333Y-123576306D01*
X141110090Y-123473694D01*
X141026306Y-123389910D01*
X140923694Y-123330667D01*
X140838583Y-123307861D01*
X141511716Y-122634729D01*
X141511716Y-122634728D01*
X141457559Y-122595380D01*
X141457553Y-122595376D01*
X141268215Y-122498904D01*
X141066121Y-122433240D01*
X140856250Y-122400000D01*
X140643750Y-122400000D01*
X140433878Y-122433240D01*
X140231784Y-122498904D01*
X140042446Y-122595376D01*
X140042442Y-122595378D01*
X139988282Y-122634728D01*
X140661416Y-123307861D01*
X140576306Y-123330667D01*
X140473694Y-123389910D01*
X140389910Y-123473694D01*
X140330667Y-123576306D01*
X140307861Y-123661416D01*
X139634728Y-122988282D01*
X139595378Y-123042442D01*
X139595376Y-123042446D01*
X139498904Y-123231784D01*
X139433240Y-123433878D01*
X139400000Y-123643749D01*
X138600000Y-123643749D01*
X138566759Y-123433878D01*
X138501095Y-123231784D01*
X138404623Y-123042446D01*
X138404619Y-123042440D01*
X138365270Y-122988282D01*
X138365269Y-122988282D01*
X137692137Y-123661414D01*
X137669333Y-123576306D01*
X137610090Y-123473694D01*
X137526306Y-123389910D01*
X137423694Y-123330667D01*
X137338583Y-123307861D01*
X138011716Y-122634729D01*
X138011716Y-122634728D01*
X137957559Y-122595380D01*
X137957553Y-122595376D01*
X137768215Y-122498904D01*
X137566121Y-122433240D01*
X137356250Y-122400000D01*
X137143750Y-122400000D01*
X136933878Y-122433240D01*
X136731784Y-122498904D01*
X136542446Y-122595376D01*
X136542442Y-122595378D01*
X136488282Y-122634728D01*
X137161416Y-123307861D01*
X137076306Y-123330667D01*
X136973694Y-123389910D01*
X136889910Y-123473694D01*
X136830667Y-123576306D01*
X136807861Y-123661416D01*
X136134728Y-122988282D01*
X136095378Y-123042442D01*
X136095376Y-123042446D01*
X135998904Y-123231784D01*
X135933240Y-123433878D01*
X135900000Y-123643749D01*
X132100000Y-123643749D01*
X132066759Y-123433878D01*
X132001095Y-123231784D01*
X131904623Y-123042446D01*
X131904619Y-123042440D01*
X131865270Y-122988282D01*
X131865269Y-122988282D01*
X131192137Y-123661414D01*
X131169333Y-123576306D01*
X131110090Y-123473694D01*
X131026306Y-123389910D01*
X130923694Y-123330667D01*
X130838583Y-123307861D01*
X131511716Y-122634729D01*
X131511716Y-122634728D01*
X131457559Y-122595380D01*
X131457553Y-122595376D01*
X131268215Y-122498904D01*
X131066121Y-122433240D01*
X130856250Y-122400000D01*
X130643750Y-122400000D01*
X130433878Y-122433240D01*
X130231784Y-122498904D01*
X130042446Y-122595376D01*
X130042442Y-122595378D01*
X129988282Y-122634728D01*
X130661416Y-123307861D01*
X130576306Y-123330667D01*
X130473694Y-123389910D01*
X130389910Y-123473694D01*
X130330667Y-123576306D01*
X130307861Y-123661416D01*
X129634728Y-122988282D01*
X129595378Y-123042442D01*
X129595376Y-123042446D01*
X129498904Y-123231784D01*
X129433240Y-123433878D01*
X129400000Y-123643749D01*
X128000500Y-123643749D01*
X128000500Y-118375327D01*
X129649500Y-118375327D01*
X129649500Y-120124672D01*
X129649501Y-120124684D01*
X129664033Y-120197736D01*
X129664035Y-120197742D01*
X129719397Y-120280599D01*
X129719399Y-120280601D01*
X129802260Y-120335966D01*
X129857808Y-120347015D01*
X129875315Y-120350498D01*
X129875320Y-120350498D01*
X129875326Y-120350500D01*
X129875327Y-120350500D01*
X131624673Y-120350500D01*
X131624674Y-120350500D01*
X131697740Y-120335966D01*
X131780601Y-120280601D01*
X131835966Y-120197740D01*
X131850500Y-120124674D01*
X131850500Y-119699500D01*
X131869407Y-119641309D01*
X131918907Y-119605345D01*
X131949500Y-119600500D01*
X136134823Y-119600500D01*
X136193014Y-119619407D01*
X136228977Y-119668905D01*
X136230127Y-119672446D01*
X136308766Y-119826785D01*
X136308768Y-119826788D01*
X136410586Y-119966928D01*
X136533072Y-120089414D01*
X136673212Y-120191232D01*
X136827555Y-120269873D01*
X136827557Y-120269873D01*
X136827558Y-120269874D01*
X136827561Y-120269876D01*
X136992293Y-120323401D01*
X136992297Y-120323402D01*
X137163386Y-120350500D01*
X137163389Y-120350500D01*
X137336614Y-120350500D01*
X137507702Y-120323402D01*
X137507706Y-120323401D01*
X137672438Y-120269876D01*
X137672440Y-120269874D01*
X137672445Y-120269873D01*
X137826788Y-120191232D01*
X137966928Y-120089414D01*
X138089414Y-119966928D01*
X138191232Y-119826788D01*
X138269873Y-119672445D01*
X138269874Y-119672440D01*
X138269876Y-119672438D01*
X138323401Y-119507706D01*
X138323402Y-119507702D01*
X138350500Y-119336614D01*
X138350500Y-119163385D01*
X138323402Y-118992297D01*
X138323401Y-118992293D01*
X138269876Y-118827561D01*
X138269874Y-118827558D01*
X138269873Y-118827557D01*
X138269873Y-118827555D01*
X138191232Y-118673212D01*
X138089414Y-118533072D01*
X137966928Y-118410586D01*
X137918398Y-118375327D01*
X139649500Y-118375327D01*
X139649500Y-120124672D01*
X139649501Y-120124684D01*
X139664033Y-120197736D01*
X139664035Y-120197742D01*
X139719397Y-120280599D01*
X139719399Y-120280601D01*
X139802260Y-120335966D01*
X139857808Y-120347015D01*
X139875315Y-120350498D01*
X139875320Y-120350498D01*
X139875326Y-120350500D01*
X139875327Y-120350500D01*
X141624673Y-120350500D01*
X141624674Y-120350500D01*
X141697740Y-120335966D01*
X141780601Y-120280601D01*
X141835966Y-120197740D01*
X141850500Y-120124674D01*
X141850500Y-119699500D01*
X141869407Y-119641309D01*
X141918907Y-119605345D01*
X141949500Y-119600500D01*
X146134823Y-119600500D01*
X146193014Y-119619407D01*
X146228977Y-119668905D01*
X146230127Y-119672446D01*
X146308766Y-119826785D01*
X146308768Y-119826788D01*
X146410586Y-119966928D01*
X146533072Y-120089414D01*
X146673212Y-120191232D01*
X146827555Y-120269873D01*
X146827557Y-120269873D01*
X146827558Y-120269874D01*
X146827561Y-120269876D01*
X146992293Y-120323401D01*
X146992297Y-120323402D01*
X147163386Y-120350500D01*
X147163389Y-120350500D01*
X147336614Y-120350500D01*
X147507702Y-120323402D01*
X147507706Y-120323401D01*
X147672438Y-120269876D01*
X147672440Y-120269874D01*
X147672445Y-120269873D01*
X147826788Y-120191232D01*
X147966928Y-120089414D01*
X148089414Y-119966928D01*
X148191232Y-119826788D01*
X148269873Y-119672445D01*
X148269874Y-119672440D01*
X148269876Y-119672438D01*
X148323401Y-119507706D01*
X148323402Y-119507702D01*
X148350500Y-119336614D01*
X148350500Y-119163385D01*
X148323402Y-118992297D01*
X148323401Y-118992293D01*
X148269876Y-118827561D01*
X148269874Y-118827558D01*
X148269873Y-118827557D01*
X148269873Y-118827555D01*
X148191232Y-118673212D01*
X148089414Y-118533072D01*
X147966928Y-118410586D01*
X147826788Y-118308768D01*
X147826787Y-118308767D01*
X147826785Y-118308766D01*
X147672441Y-118230125D01*
X147672438Y-118230123D01*
X147507706Y-118176598D01*
X147507702Y-118176597D01*
X147336614Y-118149500D01*
X147336611Y-118149500D01*
X147163389Y-118149500D01*
X147163386Y-118149500D01*
X146992297Y-118176597D01*
X146992293Y-118176598D01*
X146827561Y-118230123D01*
X146827558Y-118230125D01*
X146673214Y-118308766D01*
X146533073Y-118410585D01*
X146410585Y-118533073D01*
X146308766Y-118673214D01*
X146230127Y-118827553D01*
X146229294Y-118830117D01*
X146228978Y-118831093D01*
X146228977Y-118831095D01*
X146193011Y-118880594D01*
X146134823Y-118899500D01*
X141949500Y-118899500D01*
X141891309Y-118880593D01*
X141855345Y-118831093D01*
X141850500Y-118800500D01*
X141850500Y-118375327D01*
X141850498Y-118375315D01*
X141844542Y-118345376D01*
X141835966Y-118302260D01*
X141787768Y-118230125D01*
X141780602Y-118219400D01*
X141780599Y-118219397D01*
X141697742Y-118164035D01*
X141697740Y-118164034D01*
X141697737Y-118164033D01*
X141697736Y-118164033D01*
X141624684Y-118149501D01*
X141624674Y-118149500D01*
X141624673Y-118149500D01*
X141199500Y-118149500D01*
X141141309Y-118130593D01*
X141105345Y-118081093D01*
X141100500Y-118050500D01*
X141100500Y-117936189D01*
X141119407Y-117877998D01*
X141129490Y-117866191D01*
X142030470Y-116965212D01*
X142076614Y-116885288D01*
X142100500Y-116796143D01*
X142100500Y-116703856D01*
X142100500Y-113369031D01*
X142119407Y-113310840D01*
X142129490Y-113299033D01*
X142190509Y-113238015D01*
X142262984Y-113112485D01*
X142300500Y-112972475D01*
X142300500Y-112827525D01*
X142262984Y-112687515D01*
X142262982Y-112687511D01*
X142262982Y-112687510D01*
X142190512Y-112561989D01*
X142190510Y-112561987D01*
X142190509Y-112561985D01*
X142088015Y-112459491D01*
X142088012Y-112459489D01*
X142088010Y-112459487D01*
X141962488Y-112387017D01*
X141962489Y-112387017D01*
X141900862Y-112370504D01*
X141822475Y-112349500D01*
X141677525Y-112349500D01*
X141615790Y-112366041D01*
X141537510Y-112387017D01*
X141411989Y-112459487D01*
X141309487Y-112561989D01*
X141237017Y-112687510D01*
X141199500Y-112827525D01*
X141199500Y-112972474D01*
X141237017Y-113112489D01*
X141309487Y-113238010D01*
X141309489Y-113238012D01*
X141309491Y-113238015D01*
X141370505Y-113299029D01*
X141398281Y-113353544D01*
X141399500Y-113369031D01*
X141399500Y-116563810D01*
X141380593Y-116622001D01*
X141370504Y-116633814D01*
X140469530Y-117534788D01*
X140423386Y-117614712D01*
X140399500Y-117703857D01*
X140399500Y-118050500D01*
X140380593Y-118108691D01*
X140331093Y-118144655D01*
X140300500Y-118149500D01*
X139875326Y-118149500D01*
X139875325Y-118149500D01*
X139875315Y-118149501D01*
X139802263Y-118164033D01*
X139802257Y-118164035D01*
X139719400Y-118219397D01*
X139719397Y-118219400D01*
X139664035Y-118302257D01*
X139664033Y-118302263D01*
X139649501Y-118375315D01*
X139649500Y-118375327D01*
X137918398Y-118375327D01*
X137826788Y-118308768D01*
X137826787Y-118308767D01*
X137826785Y-118308766D01*
X137672441Y-118230125D01*
X137672438Y-118230123D01*
X137507706Y-118176598D01*
X137507702Y-118176597D01*
X137336614Y-118149500D01*
X137336611Y-118149500D01*
X137163389Y-118149500D01*
X137163386Y-118149500D01*
X136992297Y-118176597D01*
X136992293Y-118176598D01*
X136827561Y-118230123D01*
X136827558Y-118230125D01*
X136673214Y-118308766D01*
X136533073Y-118410585D01*
X136410585Y-118533073D01*
X136308766Y-118673214D01*
X136230127Y-118827553D01*
X136229294Y-118830117D01*
X136228978Y-118831093D01*
X136228977Y-118831095D01*
X136193011Y-118880594D01*
X136134823Y-118899500D01*
X131949500Y-118899500D01*
X131891309Y-118880593D01*
X131855345Y-118831093D01*
X131850500Y-118800500D01*
X131850500Y-118375327D01*
X131850498Y-118375315D01*
X131844542Y-118345376D01*
X131835966Y-118302260D01*
X131787768Y-118230125D01*
X131780602Y-118219400D01*
X131780599Y-118219397D01*
X131697742Y-118164035D01*
X131697740Y-118164034D01*
X131697737Y-118164033D01*
X131697736Y-118164033D01*
X131624684Y-118149501D01*
X131624674Y-118149500D01*
X129875326Y-118149500D01*
X129875325Y-118149500D01*
X129875315Y-118149501D01*
X129802263Y-118164033D01*
X129802257Y-118164035D01*
X129719400Y-118219397D01*
X129719397Y-118219400D01*
X129664035Y-118302257D01*
X129664033Y-118302263D01*
X129649501Y-118375315D01*
X129649500Y-118375327D01*
X128000500Y-118375327D01*
X128000500Y-106454983D01*
X129141500Y-106454983D01*
X129141500Y-108305016D01*
X129151999Y-108407788D01*
X129152002Y-108407800D01*
X129207187Y-108574336D01*
X129299285Y-108723652D01*
X129299286Y-108723653D01*
X129299288Y-108723656D01*
X129423344Y-108847712D01*
X129572666Y-108939814D01*
X129739203Y-108994999D01*
X129841991Y-109005500D01*
X130942008Y-109005499D01*
X130942016Y-109005499D01*
X131044788Y-108995000D01*
X131044788Y-108994999D01*
X131044797Y-108994999D01*
X131168708Y-108953939D01*
X131711613Y-108953939D01*
X131721241Y-108965746D01*
X131721256Y-108965761D01*
X131878867Y-109094276D01*
X131878868Y-109094277D01*
X132059138Y-109188442D01*
X132254667Y-109244390D01*
X132374000Y-109255000D01*
X133490000Y-109255000D01*
X133609332Y-109244390D01*
X133804861Y-109188442D01*
X133985129Y-109094278D01*
X134142749Y-108965755D01*
X134142761Y-108965743D01*
X134152385Y-108953939D01*
X132931999Y-107733553D01*
X131711613Y-108953939D01*
X131168708Y-108953939D01*
X131211334Y-108939814D01*
X131247372Y-108917585D01*
X131271479Y-108902717D01*
X131319555Y-108873063D01*
X131360656Y-108847712D01*
X131484712Y-108723656D01*
X131576814Y-108574334D01*
X131631999Y-108407797D01*
X131637676Y-108352225D01*
X131662397Y-108296263D01*
X131666158Y-108292287D01*
X132578446Y-107379999D01*
X131666158Y-106467711D01*
X131638381Y-106413194D01*
X131637678Y-106407799D01*
X131631999Y-106352203D01*
X131576814Y-106185666D01*
X131484712Y-106036344D01*
X131360656Y-105912288D01*
X131360653Y-105912286D01*
X131360652Y-105912285D01*
X131271472Y-105857279D01*
X131211336Y-105820187D01*
X131211335Y-105820186D01*
X131211334Y-105820186D01*
X131168702Y-105806059D01*
X131711613Y-105806059D01*
X132931999Y-107026445D01*
X134152385Y-105806059D01*
X134142758Y-105794253D01*
X134142743Y-105794238D01*
X133985132Y-105665723D01*
X133985131Y-105665722D01*
X133804861Y-105571557D01*
X133609332Y-105515609D01*
X133490000Y-105505000D01*
X132374000Y-105505000D01*
X132254667Y-105515609D01*
X132059138Y-105571557D01*
X131878868Y-105665722D01*
X131878867Y-105665723D01*
X131721257Y-105794237D01*
X131721244Y-105794250D01*
X131711613Y-105806059D01*
X131168702Y-105806059D01*
X131044797Y-105765001D01*
X131044794Y-105765000D01*
X130942016Y-105754500D01*
X129841983Y-105754500D01*
X129739211Y-105764999D01*
X129739199Y-105765002D01*
X129572663Y-105820187D01*
X129423347Y-105912285D01*
X129299285Y-106036347D01*
X129207187Y-106185663D01*
X129152000Y-106352205D01*
X129141500Y-106454983D01*
X128000500Y-106454983D01*
X128000500Y-97913385D01*
X128279500Y-97913385D01*
X128279500Y-98086614D01*
X128306597Y-98257702D01*
X128306598Y-98257706D01*
X128360123Y-98422438D01*
X128360125Y-98422441D01*
X128376131Y-98453856D01*
X128438768Y-98576788D01*
X128540586Y-98716928D01*
X128663072Y-98839414D01*
X128803212Y-98941232D01*
X128957555Y-99019873D01*
X128957557Y-99019873D01*
X128957558Y-99019874D01*
X128957561Y-99019876D01*
X129122293Y-99073401D01*
X129122297Y-99073402D01*
X129293386Y-99100500D01*
X129293389Y-99100500D01*
X129466614Y-99100500D01*
X129637702Y-99073402D01*
X129637706Y-99073401D01*
X129802438Y-99019876D01*
X129802440Y-99019874D01*
X129802445Y-99019873D01*
X129956788Y-98941232D01*
X130096928Y-98839414D01*
X130219414Y-98716928D01*
X130220406Y-98715562D01*
X130220866Y-98715227D01*
X130221941Y-98713970D01*
X130222242Y-98714227D01*
X130269903Y-98679598D01*
X130331088Y-98679595D01*
X130380590Y-98715556D01*
X130399500Y-98773746D01*
X130399500Y-99766248D01*
X130380593Y-99824439D01*
X130331093Y-99860403D01*
X130269907Y-99860403D01*
X130222241Y-99825773D01*
X130221941Y-99826030D01*
X130220870Y-99824777D01*
X130220411Y-99824443D01*
X130219419Y-99823078D01*
X130219416Y-99823075D01*
X130219414Y-99823072D01*
X130096928Y-99700586D01*
X129956788Y-99598768D01*
X129956787Y-99598767D01*
X129956785Y-99598766D01*
X129802441Y-99520125D01*
X129802438Y-99520123D01*
X129637706Y-99466598D01*
X129637702Y-99466597D01*
X129466614Y-99439500D01*
X129466611Y-99439500D01*
X129293389Y-99439500D01*
X129293386Y-99439500D01*
X129122297Y-99466597D01*
X129122293Y-99466598D01*
X128957561Y-99520123D01*
X128957558Y-99520125D01*
X128803214Y-99598766D01*
X128663073Y-99700585D01*
X128540585Y-99823073D01*
X128438766Y-99963214D01*
X128360125Y-100117558D01*
X128360123Y-100117561D01*
X128306598Y-100282293D01*
X128306597Y-100282297D01*
X128279500Y-100453385D01*
X128279500Y-100626614D01*
X128306597Y-100797702D01*
X128306598Y-100797706D01*
X128360123Y-100962438D01*
X128360125Y-100962441D01*
X128360126Y-100962444D01*
X128360127Y-100962445D01*
X128438768Y-101116788D01*
X128540586Y-101256928D01*
X128663072Y-101379414D01*
X128803212Y-101481232D01*
X128957555Y-101559873D01*
X128957557Y-101559873D01*
X128957558Y-101559874D01*
X128957561Y-101559876D01*
X129122293Y-101613401D01*
X129122297Y-101613402D01*
X129293386Y-101640500D01*
X129293389Y-101640500D01*
X129466614Y-101640500D01*
X129637702Y-101613402D01*
X129637706Y-101613401D01*
X129802438Y-101559876D01*
X129802440Y-101559874D01*
X129802445Y-101559873D01*
X129956788Y-101481232D01*
X130096928Y-101379414D01*
X130112620Y-101363721D01*
X130167133Y-101335944D01*
X130227566Y-101345514D01*
X130270831Y-101388778D01*
X130280405Y-101449209D01*
X130268360Y-101483224D01*
X130237017Y-101537511D01*
X130237016Y-101537515D01*
X130199500Y-101677525D01*
X130199500Y-101822475D01*
X130226441Y-101923020D01*
X130237017Y-101962489D01*
X130309487Y-102088010D01*
X130309489Y-102088012D01*
X130309491Y-102088015D01*
X130411985Y-102190509D01*
X130411987Y-102190510D01*
X130411989Y-102190512D01*
X130537511Y-102262982D01*
X130537512Y-102262982D01*
X130537515Y-102262984D01*
X130677525Y-102300500D01*
X130677526Y-102300500D01*
X130822474Y-102300500D01*
X130822475Y-102300500D01*
X130962485Y-102262984D01*
X130962487Y-102262982D01*
X130962489Y-102262982D01*
X131088010Y-102190512D01*
X131088010Y-102190511D01*
X131088015Y-102190509D01*
X131190509Y-102088015D01*
X131192881Y-102083906D01*
X131262982Y-101962489D01*
X131262982Y-101962487D01*
X131262984Y-101962485D01*
X131300500Y-101822475D01*
X131300500Y-101677525D01*
X131290384Y-101639772D01*
X131293585Y-101578672D01*
X131332089Y-101531122D01*
X131391189Y-101515285D01*
X131430955Y-101525939D01*
X131497555Y-101559873D01*
X131497557Y-101559873D01*
X131497558Y-101559874D01*
X131497561Y-101559876D01*
X131662293Y-101613401D01*
X131662297Y-101613402D01*
X131833386Y-101640500D01*
X131833389Y-101640500D01*
X132006614Y-101640500D01*
X132177702Y-101613402D01*
X132177706Y-101613401D01*
X132342438Y-101559876D01*
X132342440Y-101559874D01*
X132342445Y-101559873D01*
X132496788Y-101481232D01*
X132636928Y-101379414D01*
X132759414Y-101256928D01*
X132861232Y-101116788D01*
X132939873Y-100962445D01*
X132939874Y-100962440D01*
X132939876Y-100962438D01*
X132993401Y-100797706D01*
X132993402Y-100797702D01*
X133020500Y-100626614D01*
X133020500Y-100453385D01*
X133359500Y-100453385D01*
X133359500Y-100626614D01*
X133386597Y-100797702D01*
X133386598Y-100797706D01*
X133440123Y-100962438D01*
X133440125Y-100962441D01*
X133440126Y-100962444D01*
X133440127Y-100962445D01*
X133518768Y-101116788D01*
X133620586Y-101256928D01*
X133743072Y-101379414D01*
X133883212Y-101481232D01*
X134037555Y-101559873D01*
X134037557Y-101559873D01*
X134037558Y-101559874D01*
X134037561Y-101559876D01*
X134202293Y-101613401D01*
X134202297Y-101613402D01*
X134373386Y-101640500D01*
X134373389Y-101640500D01*
X134546614Y-101640500D01*
X134717702Y-101613402D01*
X134717706Y-101613401D01*
X134882438Y-101559876D01*
X134882440Y-101559874D01*
X134882445Y-101559873D01*
X135036788Y-101481232D01*
X135176928Y-101379414D01*
X135299414Y-101256928D01*
X135401232Y-101116788D01*
X135479873Y-100962445D01*
X135479874Y-100962440D01*
X135479876Y-100962438D01*
X135533401Y-100797706D01*
X135533402Y-100797702D01*
X135560500Y-100626614D01*
X135560500Y-100453385D01*
X135899500Y-100453385D01*
X135899500Y-100626614D01*
X135926597Y-100797702D01*
X135926598Y-100797706D01*
X135980123Y-100962438D01*
X135980125Y-100962441D01*
X135980126Y-100962444D01*
X135980127Y-100962445D01*
X136058768Y-101116788D01*
X136160586Y-101256928D01*
X136283072Y-101379414D01*
X136423212Y-101481232D01*
X136577555Y-101559873D01*
X136577557Y-101559873D01*
X136577558Y-101559874D01*
X136577561Y-101559876D01*
X136742293Y-101613401D01*
X136742297Y-101613402D01*
X136913386Y-101640500D01*
X136913389Y-101640500D01*
X137086614Y-101640500D01*
X137257702Y-101613402D01*
X137257706Y-101613401D01*
X137422438Y-101559876D01*
X137422440Y-101559874D01*
X137422445Y-101559873D01*
X137576788Y-101481232D01*
X137716928Y-101379414D01*
X137839414Y-101256928D01*
X137941232Y-101116788D01*
X138019873Y-100962445D01*
X138019874Y-100962440D01*
X138019876Y-100962438D01*
X138073401Y-100797706D01*
X138073402Y-100797702D01*
X138100500Y-100626614D01*
X138100500Y-100453385D01*
X138073402Y-100282297D01*
X138073401Y-100282293D01*
X138019876Y-100117561D01*
X138019874Y-100117558D01*
X138019873Y-100117557D01*
X138019873Y-100117555D01*
X137941232Y-99963212D01*
X137839414Y-99823072D01*
X137716928Y-99700586D01*
X137576788Y-99598768D01*
X137576787Y-99598767D01*
X137576785Y-99598766D01*
X137422441Y-99520125D01*
X137422438Y-99520123D01*
X137257706Y-99466598D01*
X137257702Y-99466597D01*
X137086614Y-99439500D01*
X137086611Y-99439500D01*
X136913389Y-99439500D01*
X136913386Y-99439500D01*
X136742297Y-99466597D01*
X136742293Y-99466598D01*
X136577561Y-99520123D01*
X136577558Y-99520125D01*
X136423214Y-99598766D01*
X136283073Y-99700585D01*
X136160585Y-99823073D01*
X136058766Y-99963214D01*
X135980125Y-100117558D01*
X135980123Y-100117561D01*
X135926598Y-100282293D01*
X135926597Y-100282297D01*
X135899500Y-100453385D01*
X135560500Y-100453385D01*
X135533402Y-100282297D01*
X135533401Y-100282293D01*
X135479876Y-100117561D01*
X135479874Y-100117558D01*
X135479873Y-100117557D01*
X135479873Y-100117555D01*
X135401232Y-99963212D01*
X135299414Y-99823072D01*
X135176928Y-99700586D01*
X135036788Y-99598768D01*
X135036787Y-99598767D01*
X135036785Y-99598766D01*
X134882441Y-99520125D01*
X134882438Y-99520123D01*
X134717706Y-99466598D01*
X134717702Y-99466597D01*
X134546614Y-99439500D01*
X134546611Y-99439500D01*
X134373389Y-99439500D01*
X134373386Y-99439500D01*
X134202297Y-99466597D01*
X134202293Y-99466598D01*
X134037561Y-99520123D01*
X134037558Y-99520125D01*
X133883214Y-99598766D01*
X133743073Y-99700585D01*
X133620585Y-99823073D01*
X133518766Y-99963214D01*
X133440125Y-100117558D01*
X133440123Y-100117561D01*
X133386598Y-100282293D01*
X133386597Y-100282297D01*
X133359500Y-100453385D01*
X133020500Y-100453385D01*
X132993402Y-100282297D01*
X132993401Y-100282293D01*
X132939876Y-100117561D01*
X132939874Y-100117558D01*
X132939873Y-100117557D01*
X132939873Y-100117555D01*
X132861232Y-99963212D01*
X132759414Y-99823072D01*
X132636928Y-99700586D01*
X132496788Y-99598768D01*
X132496787Y-99598767D01*
X132496785Y-99598766D01*
X132342441Y-99520125D01*
X132342438Y-99520123D01*
X132177706Y-99466598D01*
X132177702Y-99466597D01*
X132006614Y-99439500D01*
X132006611Y-99439500D01*
X131833389Y-99439500D01*
X131833386Y-99439500D01*
X131662297Y-99466597D01*
X131662293Y-99466598D01*
X131497561Y-99520123D01*
X131497558Y-99520125D01*
X131343213Y-99598766D01*
X131257691Y-99660903D01*
X131199500Y-99679810D01*
X131141309Y-99660903D01*
X131105345Y-99611403D01*
X131100500Y-99580810D01*
X131100500Y-98959189D01*
X131119407Y-98900998D01*
X131168907Y-98865034D01*
X131230093Y-98865034D01*
X131257690Y-98879096D01*
X131343212Y-98941232D01*
X131497555Y-99019873D01*
X131497557Y-99019873D01*
X131497558Y-99019874D01*
X131497561Y-99019876D01*
X131662293Y-99073401D01*
X131662297Y-99073402D01*
X131833386Y-99100500D01*
X131833389Y-99100500D01*
X132006614Y-99100500D01*
X132177702Y-99073402D01*
X132177706Y-99073401D01*
X132342438Y-99019876D01*
X132342440Y-99019874D01*
X132342445Y-99019873D01*
X132496788Y-98941232D01*
X132636928Y-98839414D01*
X132759414Y-98716928D01*
X132861232Y-98576788D01*
X132939873Y-98422445D01*
X132939874Y-98422440D01*
X132939876Y-98422438D01*
X132993401Y-98257706D01*
X132993402Y-98257702D01*
X133020500Y-98086614D01*
X133020500Y-97913385D01*
X133359500Y-97913385D01*
X133359500Y-98086614D01*
X133386597Y-98257702D01*
X133386598Y-98257706D01*
X133440123Y-98422438D01*
X133440125Y-98422441D01*
X133456131Y-98453856D01*
X133518768Y-98576788D01*
X133620586Y-98716928D01*
X133743072Y-98839414D01*
X133883212Y-98941232D01*
X134037555Y-99019873D01*
X134037557Y-99019873D01*
X134037558Y-99019874D01*
X134037561Y-99019876D01*
X134202293Y-99073401D01*
X134202297Y-99073402D01*
X134373386Y-99100500D01*
X134373389Y-99100500D01*
X134546614Y-99100500D01*
X134717702Y-99073402D01*
X134717706Y-99073401D01*
X134882438Y-99019876D01*
X134882440Y-99019874D01*
X134882445Y-99019873D01*
X135036788Y-98941232D01*
X135176928Y-98839414D01*
X135299414Y-98716928D01*
X135401232Y-98576788D01*
X135479873Y-98422445D01*
X135479874Y-98422440D01*
X135479876Y-98422438D01*
X135533401Y-98257706D01*
X135533402Y-98257702D01*
X135560500Y-98086614D01*
X135560500Y-97913385D01*
X135899500Y-97913385D01*
X135899500Y-98086614D01*
X135926597Y-98257702D01*
X135926598Y-98257706D01*
X135980123Y-98422438D01*
X135980125Y-98422441D01*
X135996131Y-98453856D01*
X136058768Y-98576788D01*
X136160586Y-98716928D01*
X136283072Y-98839414D01*
X136423212Y-98941232D01*
X136577555Y-99019873D01*
X136577557Y-99019873D01*
X136577558Y-99019874D01*
X136577561Y-99019876D01*
X136742293Y-99073401D01*
X136742297Y-99073402D01*
X136913386Y-99100500D01*
X136913389Y-99100500D01*
X137086614Y-99100500D01*
X137257702Y-99073402D01*
X137257706Y-99073401D01*
X137422438Y-99019876D01*
X137422440Y-99019874D01*
X137422445Y-99019873D01*
X137576788Y-98941232D01*
X137716928Y-98839414D01*
X137839414Y-98716928D01*
X137941232Y-98576788D01*
X138019873Y-98422445D01*
X138019874Y-98422440D01*
X138019876Y-98422438D01*
X138073401Y-98257706D01*
X138073402Y-98257702D01*
X138100500Y-98086614D01*
X138100500Y-97913385D01*
X138073402Y-97742297D01*
X138073401Y-97742293D01*
X138019876Y-97577561D01*
X138019874Y-97577558D01*
X138019873Y-97577557D01*
X138019873Y-97577555D01*
X137941232Y-97423212D01*
X137839414Y-97283072D01*
X137716928Y-97160586D01*
X137576788Y-97058768D01*
X137576787Y-97058767D01*
X137576785Y-97058766D01*
X137422441Y-96980125D01*
X137422438Y-96980123D01*
X137257706Y-96926598D01*
X137257702Y-96926597D01*
X137086614Y-96899500D01*
X137086611Y-96899500D01*
X136913389Y-96899500D01*
X136913386Y-96899500D01*
X136742297Y-96926597D01*
X136742293Y-96926598D01*
X136577561Y-96980123D01*
X136577558Y-96980125D01*
X136423214Y-97058766D01*
X136283073Y-97160585D01*
X136160585Y-97283073D01*
X136058766Y-97423214D01*
X135980125Y-97577558D01*
X135980123Y-97577561D01*
X135926598Y-97742293D01*
X135926597Y-97742297D01*
X135899500Y-97913385D01*
X135560500Y-97913385D01*
X135533402Y-97742297D01*
X135533401Y-97742293D01*
X135479876Y-97577561D01*
X135479874Y-97577558D01*
X135479873Y-97577557D01*
X135479873Y-97577555D01*
X135401232Y-97423212D01*
X135299414Y-97283072D01*
X135176928Y-97160586D01*
X135036788Y-97058768D01*
X135036787Y-97058767D01*
X135036785Y-97058766D01*
X134882441Y-96980125D01*
X134882438Y-96980123D01*
X134717706Y-96926598D01*
X134717702Y-96926597D01*
X134546614Y-96899500D01*
X134546611Y-96899500D01*
X134373389Y-96899500D01*
X134373386Y-96899500D01*
X134202297Y-96926597D01*
X134202293Y-96926598D01*
X134037561Y-96980123D01*
X134037558Y-96980125D01*
X133883214Y-97058766D01*
X133743073Y-97160585D01*
X133620585Y-97283073D01*
X133518766Y-97423214D01*
X133440125Y-97577558D01*
X133440123Y-97577561D01*
X133386598Y-97742293D01*
X133386597Y-97742297D01*
X133359500Y-97913385D01*
X133020500Y-97913385D01*
X132993402Y-97742297D01*
X132993401Y-97742293D01*
X132939876Y-97577561D01*
X132939874Y-97577558D01*
X132939873Y-97577557D01*
X132939873Y-97577555D01*
X132861232Y-97423212D01*
X132759414Y-97283072D01*
X132636928Y-97160586D01*
X132496788Y-97058768D01*
X132496787Y-97058767D01*
X132496785Y-97058766D01*
X132342441Y-96980125D01*
X132342438Y-96980123D01*
X132177706Y-96926598D01*
X132177702Y-96926597D01*
X132006614Y-96899500D01*
X132006611Y-96899500D01*
X131833389Y-96899500D01*
X131833386Y-96899500D01*
X131662297Y-96926597D01*
X131662293Y-96926598D01*
X131497561Y-96980123D01*
X131497558Y-96980125D01*
X131343213Y-97058766D01*
X131257691Y-97120903D01*
X131199500Y-97139810D01*
X131141309Y-97120903D01*
X131105345Y-97071403D01*
X131100500Y-97040810D01*
X131100500Y-93808851D01*
X134924500Y-93808851D01*
X134924500Y-95841148D01*
X134934641Y-95925591D01*
X134987634Y-96059972D01*
X134987635Y-96059974D01*
X134987636Y-96059975D01*
X135074922Y-96175078D01*
X135190025Y-96262364D01*
X135190026Y-96262364D01*
X135190027Y-96262365D01*
X135257217Y-96288861D01*
X135324410Y-96315359D01*
X135408856Y-96325500D01*
X135408858Y-96325500D01*
X136041142Y-96325500D01*
X136041144Y-96325500D01*
X136125590Y-96315359D01*
X136259975Y-96262364D01*
X136375078Y-96175078D01*
X136462364Y-96059975D01*
X136515359Y-95925590D01*
X136525500Y-95841144D01*
X136525500Y-93808856D01*
X136525499Y-93808851D01*
X136829500Y-93808851D01*
X136829500Y-95841148D01*
X136839641Y-95925591D01*
X136892634Y-96059972D01*
X136892635Y-96059974D01*
X136892636Y-96059975D01*
X136979922Y-96175078D01*
X137095025Y-96262364D01*
X137095026Y-96262364D01*
X137095027Y-96262365D01*
X137162217Y-96288861D01*
X137229410Y-96315359D01*
X137313856Y-96325500D01*
X137313858Y-96325500D01*
X137946142Y-96325500D01*
X137946144Y-96325500D01*
X138030590Y-96315359D01*
X138164975Y-96262364D01*
X138280078Y-96175078D01*
X138367364Y-96059975D01*
X138420359Y-95925590D01*
X138430500Y-95841144D01*
X138430500Y-93808856D01*
X138420359Y-93724410D01*
X138367364Y-93590025D01*
X138280078Y-93474922D01*
X138164975Y-93387636D01*
X138164974Y-93387635D01*
X138164972Y-93387634D01*
X138030591Y-93334641D01*
X137946148Y-93324500D01*
X137946144Y-93324500D01*
X137313856Y-93324500D01*
X137313851Y-93324500D01*
X137229408Y-93334641D01*
X137095027Y-93387634D01*
X136979922Y-93474922D01*
X136892634Y-93590027D01*
X136839641Y-93724408D01*
X136829500Y-93808851D01*
X136525499Y-93808851D01*
X136515359Y-93724410D01*
X136462364Y-93590025D01*
X136375078Y-93474922D01*
X136259975Y-93387636D01*
X136259974Y-93387635D01*
X136259972Y-93387634D01*
X136125591Y-93334641D01*
X136041148Y-93324500D01*
X136041144Y-93324500D01*
X135408856Y-93324500D01*
X135408851Y-93324500D01*
X135324408Y-93334641D01*
X135190027Y-93387634D01*
X135074922Y-93474922D01*
X134987634Y-93590027D01*
X134934641Y-93724408D01*
X134924500Y-93808851D01*
X131100500Y-93808851D01*
X131100500Y-92883028D01*
X131119407Y-92824837D01*
X131168359Y-92789054D01*
X131211334Y-92774814D01*
X131360656Y-92682712D01*
X131484712Y-92558656D01*
X131576814Y-92409334D01*
X131576814Y-92409333D01*
X131577739Y-92407834D01*
X131624380Y-92368232D01*
X131685390Y-92363609D01*
X131737466Y-92395729D01*
X131746261Y-92407834D01*
X131839285Y-92558652D01*
X131839286Y-92558653D01*
X131839288Y-92558656D01*
X131963344Y-92682712D01*
X131963346Y-92682713D01*
X131963347Y-92682714D01*
X132038005Y-92728763D01*
X132112666Y-92774814D01*
X132279203Y-92829999D01*
X132381991Y-92840500D01*
X133482008Y-92840499D01*
X133482016Y-92840499D01*
X133584788Y-92830000D01*
X133584788Y-92829999D01*
X133584797Y-92829999D01*
X133751334Y-92774814D01*
X133900656Y-92682712D01*
X134024712Y-92558656D01*
X134116814Y-92409334D01*
X134116814Y-92409333D01*
X134117739Y-92407834D01*
X134164380Y-92368232D01*
X134225390Y-92363609D01*
X134277466Y-92395729D01*
X134286261Y-92407834D01*
X134379285Y-92558652D01*
X134379286Y-92558653D01*
X134379288Y-92558656D01*
X134503344Y-92682712D01*
X134503346Y-92682713D01*
X134503347Y-92682714D01*
X134578005Y-92728763D01*
X134652666Y-92774814D01*
X134819203Y-92829999D01*
X134921991Y-92840500D01*
X136022008Y-92840499D01*
X136022016Y-92840499D01*
X136124788Y-92830000D01*
X136124788Y-92829999D01*
X136124797Y-92829999D01*
X136291334Y-92774814D01*
X136440656Y-92682712D01*
X136564712Y-92558656D01*
X136656814Y-92409334D01*
X136656814Y-92409333D01*
X136657739Y-92407834D01*
X136704380Y-92368232D01*
X136765390Y-92363609D01*
X136817466Y-92395729D01*
X136826261Y-92407834D01*
X136919285Y-92558652D01*
X136919286Y-92558653D01*
X136919288Y-92558656D01*
X137043344Y-92682712D01*
X137043346Y-92682713D01*
X137043347Y-92682714D01*
X137118005Y-92728763D01*
X137192666Y-92774814D01*
X137359203Y-92829999D01*
X137461991Y-92840500D01*
X138562008Y-92840499D01*
X138562016Y-92840499D01*
X138664788Y-92830000D01*
X138664788Y-92829999D01*
X138664797Y-92829999D01*
X138831334Y-92774814D01*
X138980656Y-92682712D01*
X139104712Y-92558656D01*
X139196814Y-92409334D01*
X139196814Y-92409333D01*
X139197739Y-92407834D01*
X139244380Y-92368232D01*
X139305390Y-92363609D01*
X139357466Y-92395729D01*
X139366261Y-92407834D01*
X139459285Y-92558652D01*
X139459286Y-92558653D01*
X139459288Y-92558656D01*
X139583344Y-92682712D01*
X139583346Y-92682713D01*
X139583347Y-92682714D01*
X139658005Y-92728763D01*
X139732666Y-92774814D01*
X139899203Y-92829999D01*
X140001991Y-92840500D01*
X140102500Y-92840499D01*
X140160690Y-92859406D01*
X140196654Y-92908905D01*
X140201500Y-92939499D01*
X140201500Y-97098144D01*
X140225386Y-97187288D01*
X140271530Y-97267212D01*
X140979606Y-97975287D01*
X141620504Y-98616185D01*
X141648281Y-98670702D01*
X141649500Y-98686189D01*
X141649500Y-99288626D01*
X141630593Y-99346817D01*
X141581093Y-99382781D01*
X141519907Y-99382781D01*
X141470407Y-99346817D01*
X141461813Y-99332621D01*
X141379030Y-99165704D01*
X141259722Y-99017278D01*
X141111296Y-98897970D01*
X140940693Y-98813359D01*
X140781407Y-98773746D01*
X140755890Y-98767400D01*
X140755885Y-98767399D01*
X140713130Y-98764500D01*
X139310882Y-98764500D01*
X139310857Y-98764501D01*
X139270054Y-98767268D01*
X139268111Y-98767400D01*
X139083307Y-98813359D01*
X138912703Y-98897970D01*
X138764280Y-99017276D01*
X138764276Y-99017280D01*
X138644970Y-99165703D01*
X138560359Y-99336307D01*
X138514400Y-99521109D01*
X138514399Y-99521114D01*
X138511500Y-99563859D01*
X138511500Y-101216117D01*
X138511501Y-101216142D01*
X138514400Y-101258887D01*
X138514399Y-101258887D01*
X138521519Y-101287515D01*
X138560359Y-101443693D01*
X138644970Y-101614296D01*
X138764278Y-101762722D01*
X138912704Y-101882030D01*
X139083307Y-101966641D01*
X139268111Y-102012600D01*
X139310877Y-102015500D01*
X139768708Y-102015499D01*
X139826897Y-102034406D01*
X139862861Y-102083906D01*
X139862861Y-102145091D01*
X139826897Y-102194592D01*
X139818208Y-102200235D01*
X139784788Y-102219530D01*
X137719530Y-104284788D01*
X137673386Y-104364712D01*
X137649500Y-104453857D01*
X137649500Y-105046143D01*
X137658127Y-105078339D01*
X137661500Y-105103962D01*
X137661500Y-105655500D01*
X137642593Y-105713691D01*
X137593093Y-105749655D01*
X137562501Y-105754500D01*
X137461983Y-105754500D01*
X137359211Y-105764999D01*
X137359199Y-105765002D01*
X137192663Y-105820187D01*
X137043347Y-105912285D01*
X136919285Y-106036347D01*
X136826261Y-106187165D01*
X136779620Y-106226767D01*
X136718609Y-106231390D01*
X136666533Y-106199269D01*
X136657739Y-106187165D01*
X136564714Y-106036347D01*
X136564713Y-106036346D01*
X136564712Y-106036344D01*
X136440656Y-105912288D01*
X136440653Y-105912286D01*
X136440652Y-105912285D01*
X136291336Y-105820187D01*
X136291335Y-105820186D01*
X136291334Y-105820186D01*
X136124797Y-105765001D01*
X136124794Y-105765000D01*
X136022017Y-105754500D01*
X136022009Y-105754500D01*
X135923690Y-105754500D01*
X135865499Y-105735593D01*
X135829535Y-105686093D01*
X135828063Y-105629879D01*
X135850499Y-105546144D01*
X135850499Y-105453856D01*
X135826614Y-105364712D01*
X135780470Y-105284788D01*
X135780467Y-105284785D01*
X135715212Y-105219529D01*
X135715212Y-105219530D01*
X135129496Y-104633814D01*
X135101719Y-104579297D01*
X135100500Y-104563810D01*
X135100500Y-103868955D01*
X135119407Y-103810764D01*
X135168907Y-103774800D01*
X135173856Y-103773334D01*
X135212485Y-103762984D01*
X135338015Y-103690509D01*
X135440509Y-103588015D01*
X135512984Y-103462485D01*
X135550500Y-103322475D01*
X135550500Y-103177525D01*
X135512984Y-103037515D01*
X135512982Y-103037512D01*
X135512982Y-103037510D01*
X135440512Y-102911989D01*
X135440510Y-102911987D01*
X135440509Y-102911985D01*
X135338015Y-102809491D01*
X135338012Y-102809489D01*
X135338010Y-102809487D01*
X135212488Y-102737017D01*
X135212489Y-102737017D01*
X135182896Y-102729087D01*
X135072475Y-102699500D01*
X134927525Y-102699500D01*
X134865790Y-102716041D01*
X134787510Y-102737017D01*
X134661989Y-102809487D01*
X134559487Y-102911989D01*
X134487017Y-103037510D01*
X134449500Y-103177525D01*
X134449500Y-103292953D01*
X134436238Y-103342451D01*
X134423386Y-103364711D01*
X134399500Y-103453857D01*
X134399500Y-104796143D01*
X134417873Y-104864712D01*
X134417873Y-104864714D01*
X134423383Y-104885282D01*
X134423384Y-104885284D01*
X134423385Y-104885287D01*
X134423386Y-104885288D01*
X134469530Y-104965212D01*
X134789103Y-105284785D01*
X135089814Y-105585496D01*
X135117591Y-105640013D01*
X135108020Y-105700445D01*
X135064755Y-105743710D01*
X135019811Y-105754500D01*
X134921983Y-105754500D01*
X134819211Y-105764999D01*
X134819199Y-105765002D01*
X134652663Y-105820187D01*
X134503347Y-105912285D01*
X134379285Y-106036347D01*
X134287188Y-106185662D01*
X134287186Y-106185666D01*
X134272035Y-106231390D01*
X134232001Y-106352201D01*
X134232000Y-106352209D01*
X134226323Y-106407770D01*
X134201599Y-106463738D01*
X134197840Y-106467710D01*
X133285553Y-107379999D01*
X134197841Y-108292288D01*
X134225618Y-108346805D01*
X134226324Y-108352230D01*
X134232000Y-108407789D01*
X134232002Y-108407800D01*
X134287187Y-108574336D01*
X134379285Y-108723652D01*
X134379286Y-108723653D01*
X134379288Y-108723656D01*
X134503344Y-108847712D01*
X134652666Y-108939814D01*
X134819203Y-108994999D01*
X134921991Y-109005500D01*
X136022008Y-109005499D01*
X136022016Y-109005499D01*
X136124788Y-108995000D01*
X136124788Y-108994999D01*
X136124797Y-108994999D01*
X136291334Y-108939814D01*
X136376118Y-108887518D01*
X136435571Y-108873063D01*
X136492166Y-108896313D01*
X136498094Y-108901776D01*
X139376788Y-111780470D01*
X139456712Y-111826614D01*
X139545856Y-111850500D01*
X139545858Y-111850500D01*
X148046142Y-111850500D01*
X148046144Y-111850500D01*
X148135288Y-111826614D01*
X148215212Y-111780470D01*
X165280470Y-94715212D01*
X165326614Y-94635288D01*
X165350500Y-94546143D01*
X165350500Y-94453856D01*
X165350500Y-94058020D01*
X165369407Y-93999829D01*
X165411614Y-93966556D01*
X165497598Y-93930941D01*
X165669655Y-93815977D01*
X165815977Y-93669655D01*
X165930941Y-93497598D01*
X166010130Y-93306420D01*
X166050500Y-93103465D01*
X166050500Y-92896535D01*
X166010130Y-92693580D01*
X165930941Y-92502402D01*
X165815977Y-92330345D01*
X165669655Y-92184023D01*
X165669651Y-92184020D01*
X165497597Y-92069058D01*
X165306418Y-91989869D01*
X165103467Y-91949500D01*
X165103465Y-91949500D01*
X164896535Y-91949500D01*
X164896532Y-91949500D01*
X164693581Y-91989869D01*
X164502402Y-92069058D01*
X164330348Y-92184020D01*
X164184020Y-92330348D01*
X164069058Y-92502402D01*
X163989869Y-92693581D01*
X163949500Y-92896532D01*
X163949500Y-93103467D01*
X163989869Y-93306418D01*
X164069058Y-93497597D01*
X164184020Y-93669651D01*
X164184023Y-93669655D01*
X164330345Y-93815977D01*
X164502402Y-93930941D01*
X164588385Y-93966556D01*
X164634911Y-94006292D01*
X164649500Y-94058020D01*
X164649500Y-94313810D01*
X164630593Y-94372001D01*
X164620504Y-94383814D01*
X147883814Y-111120504D01*
X147829297Y-111148281D01*
X147813810Y-111149500D01*
X139778190Y-111149500D01*
X139719999Y-111130593D01*
X139708186Y-111120504D01*
X138162186Y-109574504D01*
X138134409Y-109519987D01*
X138143980Y-109459555D01*
X138187245Y-109416290D01*
X138232190Y-109405500D01*
X146516784Y-109405500D01*
X146516786Y-109405500D01*
X146605930Y-109381614D01*
X146685854Y-109335470D01*
X161060470Y-94960854D01*
X161106614Y-94880930D01*
X161130500Y-94791786D01*
X161130500Y-87897684D01*
X163700000Y-87897684D01*
X163700000Y-88102315D01*
X163732008Y-88304412D01*
X163795243Y-88499027D01*
X163888139Y-88681348D01*
X163888143Y-88681353D01*
X163920523Y-88725920D01*
X163920524Y-88725920D01*
X164600000Y-88046444D01*
X164600000Y-88052661D01*
X164627259Y-88154394D01*
X164679920Y-88245606D01*
X164754394Y-88320080D01*
X164845606Y-88372741D01*
X164947339Y-88400000D01*
X164953553Y-88400000D01*
X164274078Y-89079475D01*
X164318647Y-89111858D01*
X164500972Y-89204756D01*
X164695587Y-89267991D01*
X164897685Y-89300000D01*
X165102315Y-89300000D01*
X165304412Y-89267991D01*
X165499027Y-89204756D01*
X165681342Y-89111863D01*
X165681350Y-89111858D01*
X165725920Y-89079475D01*
X165046445Y-88400000D01*
X165052661Y-88400000D01*
X165154394Y-88372741D01*
X165245606Y-88320080D01*
X165320080Y-88245606D01*
X165372741Y-88154394D01*
X165400000Y-88052661D01*
X165400000Y-88046445D01*
X166079475Y-88725920D01*
X166111858Y-88681350D01*
X166111863Y-88681342D01*
X166204756Y-88499027D01*
X166267991Y-88304412D01*
X166300000Y-88102315D01*
X166300000Y-87897684D01*
X166267991Y-87695587D01*
X166204756Y-87500972D01*
X166111858Y-87318647D01*
X166079475Y-87274078D01*
X165400000Y-87953553D01*
X165400000Y-87947339D01*
X165372741Y-87845606D01*
X165320080Y-87754394D01*
X165245606Y-87679920D01*
X165154394Y-87627259D01*
X165052661Y-87600000D01*
X165046445Y-87600000D01*
X165725920Y-86920524D01*
X165725920Y-86920523D01*
X165681353Y-86888143D01*
X165681348Y-86888139D01*
X165499027Y-86795243D01*
X165304412Y-86732008D01*
X165102315Y-86700000D01*
X164897685Y-86700000D01*
X164695587Y-86732008D01*
X164500972Y-86795243D01*
X164318651Y-86888139D01*
X164318647Y-86888141D01*
X164274078Y-86920523D01*
X164953555Y-87600000D01*
X164947339Y-87600000D01*
X164845606Y-87627259D01*
X164754394Y-87679920D01*
X164679920Y-87754394D01*
X164627259Y-87845606D01*
X164600000Y-87947339D01*
X164600000Y-87953555D01*
X163920523Y-87274078D01*
X163888141Y-87318647D01*
X163888139Y-87318651D01*
X163795243Y-87500972D01*
X163732008Y-87695587D01*
X163700000Y-87897684D01*
X161130500Y-87897684D01*
X161130500Y-85115177D01*
X161149407Y-85056986D01*
X161198905Y-85021022D01*
X161198910Y-85021021D01*
X161198913Y-85021021D01*
X161200931Y-85020364D01*
X161202445Y-85019873D01*
X161356788Y-84941232D01*
X161496928Y-84839414D01*
X161619414Y-84716928D01*
X161721232Y-84576788D01*
X161799873Y-84422445D01*
X161799874Y-84422440D01*
X161799876Y-84422438D01*
X161809211Y-84393709D01*
X163149500Y-84393709D01*
X163149500Y-84606290D01*
X163182752Y-84816238D01*
X163248443Y-85018412D01*
X163344948Y-85207815D01*
X163344950Y-85207819D01*
X163469891Y-85379786D01*
X163469893Y-85379788D01*
X163469896Y-85379792D01*
X163620208Y-85530104D01*
X163620211Y-85530106D01*
X163620213Y-85530108D01*
X163792180Y-85655049D01*
X163792184Y-85655051D01*
X163981588Y-85751557D01*
X164183757Y-85817246D01*
X164183758Y-85817246D01*
X164183761Y-85817247D01*
X164393710Y-85850500D01*
X164393713Y-85850500D01*
X164606290Y-85850500D01*
X164816238Y-85817247D01*
X164816239Y-85817246D01*
X164816243Y-85817246D01*
X165018412Y-85751557D01*
X165207816Y-85655051D01*
X165215457Y-85649500D01*
X165301459Y-85587016D01*
X165379792Y-85530104D01*
X165530104Y-85379792D01*
X165655051Y-85207816D01*
X165751557Y-85018412D01*
X165817246Y-84816243D01*
X165821902Y-84786849D01*
X165850500Y-84606290D01*
X165850500Y-84393709D01*
X165817247Y-84183761D01*
X165785681Y-84086611D01*
X165751557Y-83981588D01*
X165655051Y-83792184D01*
X165655049Y-83792180D01*
X165530108Y-83620213D01*
X165530106Y-83620211D01*
X165530104Y-83620208D01*
X165379792Y-83469896D01*
X165379788Y-83469893D01*
X165379786Y-83469891D01*
X165207819Y-83344950D01*
X165207815Y-83344948D01*
X165018412Y-83248443D01*
X164816238Y-83182752D01*
X164606290Y-83149500D01*
X164606287Y-83149500D01*
X164393713Y-83149500D01*
X164393710Y-83149500D01*
X164183761Y-83182752D01*
X163981587Y-83248443D01*
X163792184Y-83344948D01*
X163792180Y-83344950D01*
X163620213Y-83469891D01*
X163469891Y-83620213D01*
X163344950Y-83792180D01*
X163344948Y-83792184D01*
X163248443Y-83981587D01*
X163182752Y-84183761D01*
X163149500Y-84393709D01*
X161809211Y-84393709D01*
X161820413Y-84359233D01*
X161820413Y-84359230D01*
X161837381Y-84307007D01*
X161853402Y-84257701D01*
X161880500Y-84086611D01*
X161880500Y-83913389D01*
X161880500Y-83913385D01*
X161853402Y-83742297D01*
X161853401Y-83742293D01*
X161799876Y-83577561D01*
X161799874Y-83577558D01*
X161799873Y-83577557D01*
X161799873Y-83577555D01*
X161721232Y-83423212D01*
X161619414Y-83283072D01*
X161496928Y-83160586D01*
X161356788Y-83058768D01*
X161356787Y-83058767D01*
X161356785Y-83058766D01*
X161202441Y-82980125D01*
X161202438Y-82980123D01*
X161037706Y-82926598D01*
X161037702Y-82926597D01*
X160866614Y-82899500D01*
X160866611Y-82899500D01*
X160693389Y-82899500D01*
X160693386Y-82899500D01*
X160522297Y-82926597D01*
X160522293Y-82926598D01*
X160357561Y-82980123D01*
X160357558Y-82980125D01*
X160203214Y-83058766D01*
X160063073Y-83160585D01*
X159940585Y-83283073D01*
X159838766Y-83423214D01*
X159760125Y-83577558D01*
X159760123Y-83577561D01*
X159706598Y-83742293D01*
X159706597Y-83742297D01*
X159679500Y-83913385D01*
X159679500Y-84086614D01*
X159706597Y-84257702D01*
X159706598Y-84257706D01*
X159760123Y-84422438D01*
X159760125Y-84422441D01*
X159760126Y-84422444D01*
X159760127Y-84422445D01*
X159838768Y-84576788D01*
X159940586Y-84716928D01*
X160063072Y-84839414D01*
X160203212Y-84941232D01*
X160357555Y-85019873D01*
X160357557Y-85019873D01*
X160357558Y-85019874D01*
X160361087Y-85021021D01*
X160410589Y-85056982D01*
X160429500Y-85115172D01*
X160429500Y-94559452D01*
X160410593Y-94617643D01*
X160400504Y-94629456D01*
X152932724Y-102097235D01*
X152878207Y-102125012D01*
X152817775Y-102115441D01*
X152774510Y-102072176D01*
X152767094Y-102052857D01*
X152762984Y-102037515D01*
X152762983Y-102037514D01*
X152762983Y-102037512D01*
X152762982Y-102037511D01*
X152690512Y-101911989D01*
X152690510Y-101911987D01*
X152690509Y-101911985D01*
X152588015Y-101809491D01*
X152588012Y-101809489D01*
X152588010Y-101809487D01*
X152462488Y-101737017D01*
X152462489Y-101737017D01*
X152401601Y-101720702D01*
X152322475Y-101699500D01*
X152177525Y-101699500D01*
X152142325Y-101708932D01*
X152037510Y-101737017D01*
X151911989Y-101809487D01*
X151809487Y-101911989D01*
X151737017Y-102037510D01*
X151699500Y-102177525D01*
X151699500Y-102263810D01*
X151680593Y-102322001D01*
X151670504Y-102333814D01*
X147051503Y-106952815D01*
X146996986Y-106980592D01*
X146936554Y-106971021D01*
X146893289Y-106927756D01*
X146882499Y-106882811D01*
X146882499Y-106454983D01*
X146872000Y-106352211D01*
X146871999Y-106352209D01*
X146871999Y-106352203D01*
X146816814Y-106185666D01*
X146724712Y-106036344D01*
X146600656Y-105912288D01*
X146600653Y-105912286D01*
X146600652Y-105912285D01*
X146451336Y-105820187D01*
X146451335Y-105820186D01*
X146451334Y-105820186D01*
X146284797Y-105765001D01*
X146284794Y-105765000D01*
X146182016Y-105754500D01*
X145081983Y-105754500D01*
X144979211Y-105764999D01*
X144979199Y-105765002D01*
X144812663Y-105820187D01*
X144663347Y-105912285D01*
X144539285Y-106036347D01*
X144446261Y-106187165D01*
X144399620Y-106226767D01*
X144338609Y-106231390D01*
X144286533Y-106199269D01*
X144277739Y-106187165D01*
X144184714Y-106036347D01*
X144184713Y-106036346D01*
X144184712Y-106036344D01*
X144060656Y-105912288D01*
X144060653Y-105912286D01*
X144060652Y-105912285D01*
X143911336Y-105820187D01*
X143911335Y-105820186D01*
X143911334Y-105820186D01*
X143744797Y-105765001D01*
X143744794Y-105765000D01*
X143642017Y-105754500D01*
X143642009Y-105754500D01*
X143449500Y-105754500D01*
X143391309Y-105735593D01*
X143355345Y-105686093D01*
X143350500Y-105655500D01*
X143350500Y-103949500D01*
X143369407Y-103891309D01*
X143418907Y-103855345D01*
X143449500Y-103850500D01*
X147546142Y-103850500D01*
X147546144Y-103850500D01*
X147635288Y-103826614D01*
X147715212Y-103780470D01*
X153440470Y-98055212D01*
X153486614Y-97975288D01*
X153510500Y-97886143D01*
X153510500Y-97793856D01*
X153510500Y-85115177D01*
X153517968Y-85092190D01*
X153522246Y-85068404D01*
X153526984Y-85064441D01*
X153529407Y-85056986D01*
X153566402Y-85026050D01*
X153572480Y-85023110D01*
X153582445Y-85019873D01*
X153736788Y-84941232D01*
X153876928Y-84839414D01*
X153999414Y-84716928D01*
X154101232Y-84576788D01*
X154179873Y-84422445D01*
X154204675Y-84346111D01*
X154240639Y-84296612D01*
X154298830Y-84277705D01*
X154357021Y-84296612D01*
X154392985Y-84346112D01*
X154448904Y-84518215D01*
X154545376Y-84707553D01*
X154545380Y-84707559D01*
X154584728Y-84761716D01*
X154584729Y-84761716D01*
X155217037Y-84129407D01*
X155234075Y-84192993D01*
X155299901Y-84307007D01*
X155392993Y-84400099D01*
X155507007Y-84465925D01*
X155570589Y-84482962D01*
X154938282Y-85115269D01*
X154938282Y-85115270D01*
X154992440Y-85154619D01*
X154992446Y-85154623D01*
X155181784Y-85251095D01*
X155383878Y-85316759D01*
X155593750Y-85350000D01*
X155806250Y-85350000D01*
X156016121Y-85316759D01*
X156218215Y-85251095D01*
X156407556Y-85154620D01*
X156461716Y-85115270D01*
X155829408Y-84482962D01*
X155892993Y-84465925D01*
X156007007Y-84400099D01*
X156100099Y-84307007D01*
X156165925Y-84192993D01*
X156182962Y-84129408D01*
X156815270Y-84761716D01*
X156854620Y-84707556D01*
X156951096Y-84518213D01*
X157007014Y-84346113D01*
X157042978Y-84296613D01*
X157101168Y-84277705D01*
X157159359Y-84296612D01*
X157195323Y-84346111D01*
X157220125Y-84422441D01*
X157220126Y-84422444D01*
X157220127Y-84422445D01*
X157298768Y-84576788D01*
X157400586Y-84716928D01*
X157523072Y-84839414D01*
X157663212Y-84941232D01*
X157817555Y-85019873D01*
X157817557Y-85019873D01*
X157817558Y-85019874D01*
X157817561Y-85019876D01*
X157982293Y-85073401D01*
X157982297Y-85073402D01*
X158153386Y-85100500D01*
X158153389Y-85100500D01*
X158326614Y-85100500D01*
X158497702Y-85073402D01*
X158497706Y-85073401D01*
X158662438Y-85019876D01*
X158662440Y-85019874D01*
X158662445Y-85019873D01*
X158816788Y-84941232D01*
X158956928Y-84839414D01*
X159079414Y-84716928D01*
X159181232Y-84576788D01*
X159259873Y-84422445D01*
X159259874Y-84422440D01*
X159259876Y-84422438D01*
X159313401Y-84257706D01*
X159313402Y-84257702D01*
X159340500Y-84086614D01*
X159340500Y-83913385D01*
X159313402Y-83742297D01*
X159313401Y-83742293D01*
X159259876Y-83577561D01*
X159259874Y-83577558D01*
X159259873Y-83577557D01*
X159259873Y-83577555D01*
X159181232Y-83423212D01*
X159079414Y-83283072D01*
X158956928Y-83160586D01*
X158816788Y-83058768D01*
X158816787Y-83058767D01*
X158816785Y-83058766D01*
X158662441Y-82980125D01*
X158662438Y-82980123D01*
X158497706Y-82926598D01*
X158497702Y-82926597D01*
X158326614Y-82899500D01*
X158326611Y-82899500D01*
X158153389Y-82899500D01*
X158153386Y-82899500D01*
X157982297Y-82926597D01*
X157982293Y-82926598D01*
X157817561Y-82980123D01*
X157817558Y-82980125D01*
X157663214Y-83058766D01*
X157523073Y-83160585D01*
X157400585Y-83283073D01*
X157298766Y-83423214D01*
X157220125Y-83577558D01*
X157195323Y-83653888D01*
X157159359Y-83703388D01*
X157101167Y-83722294D01*
X157042977Y-83703386D01*
X157007014Y-83653886D01*
X156951096Y-83481786D01*
X156854623Y-83292446D01*
X156854619Y-83292440D01*
X156815270Y-83238282D01*
X156815269Y-83238282D01*
X156182962Y-83870589D01*
X156165925Y-83807007D01*
X156100099Y-83692993D01*
X156007007Y-83599901D01*
X155892993Y-83534075D01*
X155829407Y-83517037D01*
X156461716Y-82884729D01*
X156461716Y-82884728D01*
X156407559Y-82845380D01*
X156407553Y-82845376D01*
X156218215Y-82748904D01*
X156016121Y-82683240D01*
X155806250Y-82650000D01*
X155593750Y-82650000D01*
X155383878Y-82683240D01*
X155181784Y-82748904D01*
X154992446Y-82845376D01*
X154992442Y-82845378D01*
X154938282Y-82884728D01*
X155570591Y-83517037D01*
X155507007Y-83534075D01*
X155392993Y-83599901D01*
X155299901Y-83692993D01*
X155234075Y-83807007D01*
X155217037Y-83870591D01*
X154584728Y-83238282D01*
X154545378Y-83292442D01*
X154545376Y-83292446D01*
X154448904Y-83481784D01*
X154392985Y-83653887D01*
X154357021Y-83703387D01*
X154298830Y-83722294D01*
X154240639Y-83703387D01*
X154204676Y-83653887D01*
X154179876Y-83577561D01*
X154179874Y-83577558D01*
X154179873Y-83577557D01*
X154179873Y-83577555D01*
X154101232Y-83423212D01*
X153999414Y-83283072D01*
X153876928Y-83160586D01*
X153736788Y-83058768D01*
X153736787Y-83058767D01*
X153736785Y-83058766D01*
X153642390Y-83010670D01*
X153642388Y-83010668D01*
X153582447Y-82980127D01*
X153582438Y-82980123D01*
X153417706Y-82926598D01*
X153417702Y-82926597D01*
X153246614Y-82899500D01*
X153246611Y-82899500D01*
X153073389Y-82899500D01*
X153073386Y-82899500D01*
X152902297Y-82926597D01*
X152902293Y-82926598D01*
X152737561Y-82980123D01*
X152737558Y-82980125D01*
X152583214Y-83058766D01*
X152443073Y-83160585D01*
X152320585Y-83283073D01*
X152218766Y-83423214D01*
X152140125Y-83577558D01*
X152140123Y-83577561D01*
X152086598Y-83742293D01*
X152086597Y-83742297D01*
X152059500Y-83913385D01*
X152059500Y-84086614D01*
X152086597Y-84257702D01*
X152086598Y-84257706D01*
X152140123Y-84422438D01*
X152140125Y-84422441D01*
X152140126Y-84422444D01*
X152140127Y-84422445D01*
X152218768Y-84576788D01*
X152320586Y-84716928D01*
X152443072Y-84839414D01*
X152583212Y-84941232D01*
X152737555Y-85019873D01*
X152737557Y-85019873D01*
X152737558Y-85019874D01*
X152741087Y-85021021D01*
X152790589Y-85056982D01*
X152809500Y-85115172D01*
X152809500Y-97653810D01*
X152790593Y-97712001D01*
X152780504Y-97723814D01*
X148599504Y-101904814D01*
X148544987Y-101932591D01*
X148484555Y-101923020D01*
X148441290Y-101879755D01*
X148430500Y-101834810D01*
X148430500Y-85115177D01*
X148449407Y-85056986D01*
X148498905Y-85021022D01*
X148498910Y-85021021D01*
X148498913Y-85021021D01*
X148500931Y-85020364D01*
X148502445Y-85019873D01*
X148656788Y-84941232D01*
X148796928Y-84839414D01*
X148919414Y-84716928D01*
X149021232Y-84576788D01*
X149099873Y-84422445D01*
X149099874Y-84422440D01*
X149099876Y-84422438D01*
X149153401Y-84257706D01*
X149153402Y-84257702D01*
X149180500Y-84086614D01*
X149180500Y-83913385D01*
X149519500Y-83913385D01*
X149519500Y-84086614D01*
X149546597Y-84257702D01*
X149546598Y-84257706D01*
X149600123Y-84422438D01*
X149600125Y-84422441D01*
X149600126Y-84422444D01*
X149600127Y-84422445D01*
X149678768Y-84576788D01*
X149780586Y-84716928D01*
X149903072Y-84839414D01*
X150043212Y-84941232D01*
X150197555Y-85019873D01*
X150197557Y-85019873D01*
X150197558Y-85019874D01*
X150197561Y-85019876D01*
X150362293Y-85073401D01*
X150362297Y-85073402D01*
X150533386Y-85100500D01*
X150533389Y-85100500D01*
X150706614Y-85100500D01*
X150877702Y-85073402D01*
X150877706Y-85073401D01*
X151042438Y-85019876D01*
X151042440Y-85019874D01*
X151042445Y-85019873D01*
X151196788Y-84941232D01*
X151336928Y-84839414D01*
X151459414Y-84716928D01*
X151561232Y-84576788D01*
X151639873Y-84422445D01*
X151639874Y-84422440D01*
X151639876Y-84422438D01*
X151693401Y-84257706D01*
X151693402Y-84257702D01*
X151720500Y-84086614D01*
X151720500Y-83913385D01*
X151693402Y-83742297D01*
X151693401Y-83742293D01*
X151639876Y-83577561D01*
X151639874Y-83577558D01*
X151639873Y-83577557D01*
X151639873Y-83577555D01*
X151561232Y-83423212D01*
X151459414Y-83283072D01*
X151336928Y-83160586D01*
X151196788Y-83058768D01*
X151196787Y-83058767D01*
X151196785Y-83058766D01*
X151042441Y-82980125D01*
X151042438Y-82980123D01*
X150877706Y-82926598D01*
X150877702Y-82926597D01*
X150706614Y-82899500D01*
X150706611Y-82899500D01*
X150533389Y-82899500D01*
X150533386Y-82899500D01*
X150362297Y-82926597D01*
X150362293Y-82926598D01*
X150197561Y-82980123D01*
X150197558Y-82980125D01*
X150043214Y-83058766D01*
X149903073Y-83160585D01*
X149780585Y-83283073D01*
X149678766Y-83423214D01*
X149600125Y-83577558D01*
X149600123Y-83577561D01*
X149546598Y-83742293D01*
X149546597Y-83742297D01*
X149519500Y-83913385D01*
X149180500Y-83913385D01*
X149153402Y-83742297D01*
X149153401Y-83742293D01*
X149099876Y-83577561D01*
X149099874Y-83577558D01*
X149099873Y-83577557D01*
X149099873Y-83577555D01*
X149021232Y-83423212D01*
X148919414Y-83283072D01*
X148796928Y-83160586D01*
X148656788Y-83058768D01*
X148656787Y-83058767D01*
X148656785Y-83058766D01*
X148502441Y-82980125D01*
X148502438Y-82980123D01*
X148337706Y-82926598D01*
X148337702Y-82926597D01*
X148166614Y-82899500D01*
X148166611Y-82899500D01*
X147993389Y-82899500D01*
X147993386Y-82899500D01*
X147822297Y-82926597D01*
X147822293Y-82926598D01*
X147657561Y-82980123D01*
X147657558Y-82980125D01*
X147503214Y-83058766D01*
X147363073Y-83160585D01*
X147240585Y-83283073D01*
X147138766Y-83423214D01*
X147060125Y-83577558D01*
X147060123Y-83577561D01*
X147006598Y-83742293D01*
X147006597Y-83742297D01*
X146979500Y-83913385D01*
X146979500Y-84086614D01*
X147006597Y-84257702D01*
X147006598Y-84257706D01*
X147060123Y-84422438D01*
X147060125Y-84422441D01*
X147060126Y-84422444D01*
X147060127Y-84422445D01*
X147138768Y-84576788D01*
X147240586Y-84716928D01*
X147363072Y-84839414D01*
X147503212Y-84941232D01*
X147657555Y-85019873D01*
X147657557Y-85019873D01*
X147657558Y-85019874D01*
X147661087Y-85021021D01*
X147710589Y-85056982D01*
X147729500Y-85115172D01*
X147729500Y-101733810D01*
X147710593Y-101792001D01*
X147700504Y-101803814D01*
X147383814Y-102120504D01*
X147329297Y-102148281D01*
X147313810Y-102149500D01*
X147095506Y-102149500D01*
X147037315Y-102130593D01*
X147001351Y-102081093D01*
X147001351Y-102019907D01*
X147037315Y-101970407D01*
X147046005Y-101964764D01*
X147061804Y-101955641D01*
X147088015Y-101940509D01*
X147190509Y-101838015D01*
X147190512Y-101838010D01*
X147262982Y-101712489D01*
X147262982Y-101712487D01*
X147262984Y-101712485D01*
X147300500Y-101572475D01*
X147300500Y-101427525D01*
X147262984Y-101287515D01*
X147262982Y-101287512D01*
X147262982Y-101287510D01*
X147190512Y-101161989D01*
X147190510Y-101161987D01*
X147190509Y-101161985D01*
X147088015Y-101059491D01*
X147088012Y-101059489D01*
X147088010Y-101059487D01*
X146962488Y-100987017D01*
X146962489Y-100987017D01*
X146932896Y-100979087D01*
X146822475Y-100949500D01*
X146822474Y-100949500D01*
X146736190Y-100949500D01*
X146677999Y-100930593D01*
X146666186Y-100920504D01*
X146011496Y-100265814D01*
X145983719Y-100211297D01*
X145982500Y-100195810D01*
X145982500Y-92939499D01*
X146001407Y-92881308D01*
X146050907Y-92845344D01*
X146081500Y-92840499D01*
X146182016Y-92840499D01*
X146284788Y-92830000D01*
X146284788Y-92829999D01*
X146284797Y-92829999D01*
X146451334Y-92774814D01*
X146600656Y-92682712D01*
X146724712Y-92558656D01*
X146816814Y-92409334D01*
X146871999Y-92242797D01*
X146882500Y-92140009D01*
X146882499Y-90289992D01*
X146882499Y-90289991D01*
X146882499Y-90289983D01*
X146872000Y-90187211D01*
X146871999Y-90187209D01*
X146871999Y-90187203D01*
X146816814Y-90020666D01*
X146724712Y-89871344D01*
X146600656Y-89747288D01*
X146600653Y-89747286D01*
X146600652Y-89747285D01*
X146451336Y-89655187D01*
X146451335Y-89655186D01*
X146451334Y-89655186D01*
X146284797Y-89600001D01*
X146284794Y-89600000D01*
X146182016Y-89589500D01*
X145081983Y-89589500D01*
X144979211Y-89599999D01*
X144979199Y-89600002D01*
X144812663Y-89655187D01*
X144663347Y-89747285D01*
X144539285Y-89871347D01*
X144446261Y-90022165D01*
X144399620Y-90061767D01*
X144338609Y-90066390D01*
X144286533Y-90034269D01*
X144277739Y-90022165D01*
X144184714Y-89871347D01*
X144184713Y-89871346D01*
X144184712Y-89871344D01*
X144060656Y-89747288D01*
X144060653Y-89747286D01*
X144060652Y-89747285D01*
X143911336Y-89655187D01*
X143911335Y-89655186D01*
X143911334Y-89655186D01*
X143744797Y-89600001D01*
X143744794Y-89600000D01*
X143642016Y-89589500D01*
X142541983Y-89589500D01*
X142439211Y-89599999D01*
X142439199Y-89600002D01*
X142272663Y-89655187D01*
X142123347Y-89747285D01*
X141999285Y-89871347D01*
X141906261Y-90022165D01*
X141859620Y-90061767D01*
X141798609Y-90066390D01*
X141746533Y-90034269D01*
X141737739Y-90022165D01*
X141644714Y-89871347D01*
X141644713Y-89871346D01*
X141644712Y-89871344D01*
X141520656Y-89747288D01*
X141520653Y-89747286D01*
X141520652Y-89747285D01*
X141371336Y-89655187D01*
X141371335Y-89655186D01*
X141371334Y-89655186D01*
X141204797Y-89600001D01*
X141204794Y-89600000D01*
X141102016Y-89589500D01*
X140001983Y-89589500D01*
X139899211Y-89599999D01*
X139899199Y-89600002D01*
X139732663Y-89655187D01*
X139583347Y-89747285D01*
X139459287Y-89871345D01*
X139366260Y-90022166D01*
X139319618Y-90061767D01*
X139258608Y-90066390D01*
X139206532Y-90034269D01*
X139197738Y-90022164D01*
X139153293Y-89950105D01*
X139138837Y-89890652D01*
X139162088Y-89834057D01*
X139167551Y-89828130D01*
X140116187Y-88879496D01*
X140170703Y-88851719D01*
X140186190Y-88850500D01*
X142546142Y-88850500D01*
X142546144Y-88850500D01*
X142635288Y-88826614D01*
X142659232Y-88812789D01*
X142659234Y-88812789D01*
X142674232Y-88804128D01*
X142715212Y-88780470D01*
X143280470Y-88215212D01*
X143326614Y-88135288D01*
X143350500Y-88046144D01*
X143350500Y-87953856D01*
X143350500Y-86027525D01*
X143949500Y-86027525D01*
X143949500Y-86172474D01*
X143987017Y-86312489D01*
X144059487Y-86438010D01*
X144059489Y-86438012D01*
X144059491Y-86438015D01*
X144161985Y-86540509D01*
X144161987Y-86540510D01*
X144161989Y-86540512D01*
X144287511Y-86612982D01*
X144287512Y-86612982D01*
X144287515Y-86612984D01*
X144427525Y-86650500D01*
X144427526Y-86650500D01*
X144572474Y-86650500D01*
X144572475Y-86650500D01*
X144712485Y-86612984D01*
X144712487Y-86612982D01*
X144712489Y-86612982D01*
X144838010Y-86540512D01*
X144838010Y-86540511D01*
X144838015Y-86540509D01*
X144940509Y-86438015D01*
X144962456Y-86400000D01*
X145007925Y-86359059D01*
X145048193Y-86350500D01*
X145546142Y-86350500D01*
X145546144Y-86350500D01*
X145635288Y-86326614D01*
X145638451Y-86324788D01*
X145715212Y-86280470D01*
X146280470Y-85715212D01*
X146326614Y-85635288D01*
X146350500Y-85546144D01*
X146350500Y-85453856D01*
X146350500Y-84786849D01*
X146369407Y-84728658D01*
X146376895Y-84719890D01*
X146376889Y-84719885D01*
X146379406Y-84716936D01*
X146379414Y-84716928D01*
X146481232Y-84576788D01*
X146559873Y-84422445D01*
X146559874Y-84422440D01*
X146559876Y-84422438D01*
X146613401Y-84257706D01*
X146613402Y-84257702D01*
X146640500Y-84086614D01*
X146640500Y-83913385D01*
X146613402Y-83742297D01*
X146613401Y-83742293D01*
X146559876Y-83577561D01*
X146559874Y-83577558D01*
X146559873Y-83577557D01*
X146559873Y-83577555D01*
X146481232Y-83423212D01*
X146379414Y-83283072D01*
X146256928Y-83160586D01*
X146116788Y-83058768D01*
X146116787Y-83058767D01*
X146116785Y-83058766D01*
X145962441Y-82980125D01*
X145962438Y-82980123D01*
X145797706Y-82926598D01*
X145797702Y-82926597D01*
X145626614Y-82899500D01*
X145626611Y-82899500D01*
X145453389Y-82899500D01*
X145453386Y-82899500D01*
X145282297Y-82926597D01*
X145282293Y-82926598D01*
X145117561Y-82980123D01*
X145117558Y-82980125D01*
X144963214Y-83058766D01*
X144823073Y-83160585D01*
X144700585Y-83283073D01*
X144598766Y-83423214D01*
X144520125Y-83577558D01*
X144520123Y-83577561D01*
X144466598Y-83742293D01*
X144466597Y-83742297D01*
X144439500Y-83913385D01*
X144439500Y-84086614D01*
X144466597Y-84257702D01*
X144466598Y-84257706D01*
X144520123Y-84422438D01*
X144520125Y-84422441D01*
X144520126Y-84422444D01*
X144520127Y-84422445D01*
X144598768Y-84576788D01*
X144700586Y-84716928D01*
X144823072Y-84839414D01*
X144963212Y-84941232D01*
X145117555Y-85019873D01*
X145117557Y-85019873D01*
X145117558Y-85019874D01*
X145117561Y-85019876D01*
X145282293Y-85073401D01*
X145282297Y-85073402D01*
X145453386Y-85100500D01*
X145550500Y-85100500D01*
X145608691Y-85119407D01*
X145644655Y-85168907D01*
X145649500Y-85199500D01*
X145649500Y-85313810D01*
X145630593Y-85372001D01*
X145620504Y-85383814D01*
X145383814Y-85620504D01*
X145329297Y-85648281D01*
X145313810Y-85649500D01*
X144847236Y-85649500D01*
X144797737Y-85636236D01*
X144712485Y-85587016D01*
X144572475Y-85549500D01*
X144427525Y-85549500D01*
X144365790Y-85566041D01*
X144287510Y-85587017D01*
X144161989Y-85659487D01*
X144059487Y-85761989D01*
X143987017Y-85887510D01*
X143949500Y-86027525D01*
X143350500Y-86027525D01*
X143350500Y-85115177D01*
X143369407Y-85056986D01*
X143418905Y-85021022D01*
X143418910Y-85021021D01*
X143418913Y-85021021D01*
X143420931Y-85020364D01*
X143422445Y-85019873D01*
X143576788Y-84941232D01*
X143716928Y-84839414D01*
X143839414Y-84716928D01*
X143941232Y-84576788D01*
X144019873Y-84422445D01*
X144019874Y-84422440D01*
X144019876Y-84422438D01*
X144073401Y-84257706D01*
X144073402Y-84257702D01*
X144100500Y-84086614D01*
X144100500Y-83913385D01*
X144073402Y-83742297D01*
X144073401Y-83742293D01*
X144019876Y-83577561D01*
X144019874Y-83577558D01*
X144019873Y-83577557D01*
X144019873Y-83577555D01*
X143941232Y-83423212D01*
X143839414Y-83283072D01*
X143716928Y-83160586D01*
X143576788Y-83058768D01*
X143576787Y-83058767D01*
X143576785Y-83058766D01*
X143422441Y-82980125D01*
X143422438Y-82980123D01*
X143257706Y-82926598D01*
X143257702Y-82926597D01*
X143086614Y-82899500D01*
X143086611Y-82899500D01*
X142913389Y-82899500D01*
X142913386Y-82899500D01*
X142742297Y-82926597D01*
X142742293Y-82926598D01*
X142577561Y-82980123D01*
X142577558Y-82980125D01*
X142423214Y-83058766D01*
X142283073Y-83160585D01*
X142160585Y-83283073D01*
X142058766Y-83423214D01*
X141980125Y-83577558D01*
X141980123Y-83577561D01*
X141926598Y-83742293D01*
X141926597Y-83742297D01*
X141899500Y-83913385D01*
X141899500Y-84086614D01*
X141926597Y-84257702D01*
X141926598Y-84257706D01*
X141980123Y-84422438D01*
X141980125Y-84422441D01*
X141980126Y-84422444D01*
X141980127Y-84422445D01*
X142058768Y-84576788D01*
X142160586Y-84716928D01*
X142283072Y-84839414D01*
X142423212Y-84941232D01*
X142577555Y-85019873D01*
X142577557Y-85019873D01*
X142577558Y-85019874D01*
X142581087Y-85021021D01*
X142630589Y-85056982D01*
X142649500Y-85115172D01*
X142649500Y-87813810D01*
X142630593Y-87872001D01*
X142620504Y-87883814D01*
X142383814Y-88120504D01*
X142329297Y-88148281D01*
X142313810Y-88149500D01*
X139953856Y-88149500D01*
X139864712Y-88173386D01*
X139784785Y-88219532D01*
X138443811Y-89560504D01*
X138389295Y-89588281D01*
X138373808Y-89589500D01*
X137461983Y-89589500D01*
X137359211Y-89599999D01*
X137359199Y-89600002D01*
X137192663Y-89655187D01*
X137043347Y-89747285D01*
X136919285Y-89871347D01*
X136826261Y-90022165D01*
X136779620Y-90061767D01*
X136718609Y-90066390D01*
X136666533Y-90034269D01*
X136657739Y-90022165D01*
X136564714Y-89871347D01*
X136564713Y-89871346D01*
X136564712Y-89871344D01*
X136440656Y-89747288D01*
X136440653Y-89747286D01*
X136440652Y-89747285D01*
X136291336Y-89655187D01*
X136291335Y-89655186D01*
X136291334Y-89655186D01*
X136124797Y-89600001D01*
X136124794Y-89600000D01*
X136022017Y-89589500D01*
X136022009Y-89589500D01*
X135921500Y-89589500D01*
X135863309Y-89570593D01*
X135827345Y-89521093D01*
X135822500Y-89490500D01*
X135822500Y-89214189D01*
X135841407Y-89155998D01*
X135851496Y-89144185D01*
X137116185Y-87879496D01*
X137170702Y-87851719D01*
X137186189Y-87850500D01*
X139546142Y-87850500D01*
X139546144Y-87850500D01*
X139635288Y-87826614D01*
X139715212Y-87780470D01*
X140740470Y-86755212D01*
X140786614Y-86675288D01*
X140803308Y-86612984D01*
X140810500Y-86586144D01*
X140810500Y-85115177D01*
X140829407Y-85056986D01*
X140878905Y-85021022D01*
X140878910Y-85021021D01*
X140878913Y-85021021D01*
X140880931Y-85020364D01*
X140882445Y-85019873D01*
X141036788Y-84941232D01*
X141176928Y-84839414D01*
X141299414Y-84716928D01*
X141401232Y-84576788D01*
X141479873Y-84422445D01*
X141479874Y-84422440D01*
X141479876Y-84422438D01*
X141533401Y-84257706D01*
X141533402Y-84257702D01*
X141560500Y-84086614D01*
X141560500Y-83913385D01*
X141533402Y-83742297D01*
X141533401Y-83742293D01*
X141479876Y-83577561D01*
X141479874Y-83577558D01*
X141479873Y-83577557D01*
X141479873Y-83577555D01*
X141401232Y-83423212D01*
X141299414Y-83283072D01*
X141176928Y-83160586D01*
X141036788Y-83058768D01*
X141036787Y-83058767D01*
X141036785Y-83058766D01*
X140882441Y-82980125D01*
X140882438Y-82980123D01*
X140717706Y-82926598D01*
X140717702Y-82926597D01*
X140546614Y-82899500D01*
X140546611Y-82899500D01*
X140373389Y-82899500D01*
X140373386Y-82899500D01*
X140202297Y-82926597D01*
X140202293Y-82926598D01*
X140037561Y-82980123D01*
X140037558Y-82980125D01*
X139883214Y-83058766D01*
X139743073Y-83160585D01*
X139620585Y-83283073D01*
X139518766Y-83423214D01*
X139440125Y-83577558D01*
X139440123Y-83577561D01*
X139386598Y-83742293D01*
X139386597Y-83742297D01*
X139359500Y-83913385D01*
X139359500Y-84086614D01*
X139386597Y-84257702D01*
X139386598Y-84257706D01*
X139440123Y-84422438D01*
X139440125Y-84422441D01*
X139440126Y-84422444D01*
X139440127Y-84422445D01*
X139518768Y-84576788D01*
X139620586Y-84716928D01*
X139743072Y-84839414D01*
X139883212Y-84941232D01*
X140037555Y-85019873D01*
X140037557Y-85019873D01*
X140037558Y-85019874D01*
X140041087Y-85021021D01*
X140090589Y-85056982D01*
X140109500Y-85115172D01*
X140109500Y-86353810D01*
X140090593Y-86412001D01*
X140080504Y-86423814D01*
X139383814Y-87120504D01*
X139329297Y-87148281D01*
X139313810Y-87149500D01*
X136953856Y-87149500D01*
X136864712Y-87173386D01*
X136864711Y-87173386D01*
X136864709Y-87173387D01*
X136784790Y-87219529D01*
X135191530Y-88812788D01*
X135145386Y-88892712D01*
X135121500Y-88981857D01*
X135121500Y-89490500D01*
X135102593Y-89548691D01*
X135053093Y-89584655D01*
X135022501Y-89589500D01*
X134921983Y-89589500D01*
X134819211Y-89599999D01*
X134819199Y-89600002D01*
X134652663Y-89655187D01*
X134503347Y-89747285D01*
X134379285Y-89871347D01*
X134286261Y-90022165D01*
X134239620Y-90061767D01*
X134178609Y-90066390D01*
X134126533Y-90034269D01*
X134117739Y-90022165D01*
X134024714Y-89871347D01*
X134024713Y-89871346D01*
X134024712Y-89871344D01*
X133900656Y-89747288D01*
X133900653Y-89747286D01*
X133900652Y-89747285D01*
X133751336Y-89655187D01*
X133751335Y-89655186D01*
X133751334Y-89655186D01*
X133584797Y-89600001D01*
X133584794Y-89600000D01*
X133482017Y-89589500D01*
X133482009Y-89589500D01*
X133381500Y-89589500D01*
X133323309Y-89570593D01*
X133287345Y-89521093D01*
X133282500Y-89490500D01*
X133282500Y-87254190D01*
X133301407Y-87195999D01*
X133311496Y-87184186D01*
X134016186Y-86479496D01*
X134070703Y-86451719D01*
X134086190Y-86450500D01*
X138530968Y-86450500D01*
X138589159Y-86469407D01*
X138600971Y-86479496D01*
X138661984Y-86540508D01*
X138661989Y-86540512D01*
X138787511Y-86612982D01*
X138787512Y-86612982D01*
X138787515Y-86612984D01*
X138927525Y-86650500D01*
X138927526Y-86650500D01*
X139072474Y-86650500D01*
X139072475Y-86650500D01*
X139212485Y-86612984D01*
X139212487Y-86612982D01*
X139212489Y-86612982D01*
X139338010Y-86540512D01*
X139338010Y-86540511D01*
X139338015Y-86540509D01*
X139440509Y-86438015D01*
X139455528Y-86412001D01*
X139512982Y-86312489D01*
X139512982Y-86312487D01*
X139512984Y-86312485D01*
X139550500Y-86172475D01*
X139550500Y-86027525D01*
X139512984Y-85887515D01*
X139512982Y-85887512D01*
X139512982Y-85887510D01*
X139440512Y-85761989D01*
X139440510Y-85761987D01*
X139440509Y-85761985D01*
X139338015Y-85659491D01*
X139338012Y-85659489D01*
X139338010Y-85659487D01*
X139212488Y-85587017D01*
X139212489Y-85587017D01*
X139182896Y-85579087D01*
X139072475Y-85549500D01*
X138927525Y-85549500D01*
X138865790Y-85566041D01*
X138787510Y-85587017D01*
X138661989Y-85659487D01*
X138661984Y-85659491D01*
X138600971Y-85720504D01*
X138546454Y-85748281D01*
X138530968Y-85749500D01*
X133853856Y-85749500D01*
X133764712Y-85773386D01*
X133684788Y-85819530D01*
X132651530Y-86852788D01*
X132605386Y-86932712D01*
X132581500Y-87021857D01*
X132581500Y-89490500D01*
X132562593Y-89548691D01*
X132513093Y-89584655D01*
X132482501Y-89589500D01*
X132381983Y-89589500D01*
X132279211Y-89599999D01*
X132279199Y-89600002D01*
X132112663Y-89655187D01*
X131963347Y-89747285D01*
X131839285Y-89871347D01*
X131746261Y-90022165D01*
X131699620Y-90061767D01*
X131638609Y-90066390D01*
X131586533Y-90034269D01*
X131577739Y-90022165D01*
X131484714Y-89871347D01*
X131484713Y-89871346D01*
X131484712Y-89871344D01*
X131360656Y-89747288D01*
X131360653Y-89747286D01*
X131360652Y-89747285D01*
X131211336Y-89655187D01*
X131211335Y-89655186D01*
X131211334Y-89655186D01*
X131044797Y-89600001D01*
X131044794Y-89600000D01*
X130942016Y-89589500D01*
X129841983Y-89589500D01*
X129739211Y-89599999D01*
X129739199Y-89600002D01*
X129572663Y-89655187D01*
X129423347Y-89747285D01*
X129299285Y-89871347D01*
X129207187Y-90020663D01*
X129152000Y-90187205D01*
X129141500Y-90289983D01*
X129141500Y-92140016D01*
X129151999Y-92242788D01*
X129152002Y-92242800D01*
X129207187Y-92409336D01*
X129299285Y-92558652D01*
X129299286Y-92558653D01*
X129299288Y-92558656D01*
X129423344Y-92682712D01*
X129423346Y-92682713D01*
X129423347Y-92682714D01*
X129498005Y-92728763D01*
X129572666Y-92774814D01*
X129739203Y-92829999D01*
X129841991Y-92840500D01*
X130300500Y-92840499D01*
X130358691Y-92859406D01*
X130394655Y-92908906D01*
X130399500Y-92939499D01*
X130399500Y-97226248D01*
X130380593Y-97284439D01*
X130331093Y-97320403D01*
X130269907Y-97320403D01*
X130222241Y-97285773D01*
X130221941Y-97286030D01*
X130220870Y-97284777D01*
X130220411Y-97284443D01*
X130219419Y-97283078D01*
X130219416Y-97283075D01*
X130219414Y-97283072D01*
X130096928Y-97160586D01*
X129956788Y-97058768D01*
X129956787Y-97058767D01*
X129956785Y-97058766D01*
X129802441Y-96980125D01*
X129802438Y-96980123D01*
X129637706Y-96926598D01*
X129637702Y-96926597D01*
X129466614Y-96899500D01*
X129466611Y-96899500D01*
X129293389Y-96899500D01*
X129293386Y-96899500D01*
X129122297Y-96926597D01*
X129122293Y-96926598D01*
X128957561Y-96980123D01*
X128957558Y-96980125D01*
X128803214Y-97058766D01*
X128663073Y-97160585D01*
X128540585Y-97283073D01*
X128438766Y-97423214D01*
X128360125Y-97577558D01*
X128360123Y-97577561D01*
X128306598Y-97742293D01*
X128306597Y-97742297D01*
X128279500Y-97913385D01*
X128000500Y-97913385D01*
X128000500Y-84393709D01*
X129149500Y-84393709D01*
X129149500Y-84606290D01*
X129182752Y-84816238D01*
X129248443Y-85018412D01*
X129344948Y-85207815D01*
X129344950Y-85207819D01*
X129469891Y-85379786D01*
X129469893Y-85379788D01*
X129469896Y-85379792D01*
X129620208Y-85530104D01*
X129620211Y-85530106D01*
X129620213Y-85530108D01*
X129792180Y-85655049D01*
X129792184Y-85655051D01*
X129981588Y-85751557D01*
X130183757Y-85817246D01*
X130183758Y-85817246D01*
X130183761Y-85817247D01*
X130393710Y-85850500D01*
X130393713Y-85850500D01*
X130606290Y-85850500D01*
X130816238Y-85817247D01*
X130816239Y-85817246D01*
X130816243Y-85817246D01*
X131018412Y-85751557D01*
X131207816Y-85655051D01*
X131215457Y-85649500D01*
X131301459Y-85587016D01*
X131379792Y-85530104D01*
X131530104Y-85379792D01*
X131655051Y-85207816D01*
X131751557Y-85018412D01*
X131817246Y-84816243D01*
X131821902Y-84786849D01*
X131850500Y-84606290D01*
X131850500Y-84393709D01*
X131817247Y-84183761D01*
X131785681Y-84086611D01*
X131751557Y-83981588D01*
X131655051Y-83792184D01*
X131655049Y-83792180D01*
X131530108Y-83620213D01*
X131530106Y-83620211D01*
X131530104Y-83620208D01*
X131379792Y-83469896D01*
X131379788Y-83469893D01*
X131379786Y-83469891D01*
X131207819Y-83344950D01*
X131207815Y-83344948D01*
X131018412Y-83248443D01*
X130987140Y-83238282D01*
X130875151Y-83201894D01*
X130816238Y-83182752D01*
X130606290Y-83149500D01*
X130606287Y-83149500D01*
X130393713Y-83149500D01*
X130393710Y-83149500D01*
X130183761Y-83182752D01*
X129981587Y-83248443D01*
X129792184Y-83344948D01*
X129792180Y-83344950D01*
X129620213Y-83469891D01*
X129469891Y-83620213D01*
X129344950Y-83792180D01*
X129344948Y-83792184D01*
X129248443Y-83981587D01*
X129182752Y-84183761D01*
X129149500Y-84393709D01*
X128000500Y-84393709D01*
X128000500Y-83125327D01*
X134279500Y-83125327D01*
X134279500Y-84874672D01*
X134279501Y-84874684D01*
X134294033Y-84947736D01*
X134294035Y-84947742D01*
X134349397Y-85030599D01*
X134349400Y-85030602D01*
X134400045Y-85064441D01*
X134432260Y-85085966D01*
X134487097Y-85096874D01*
X134505315Y-85100498D01*
X134505320Y-85100498D01*
X134505326Y-85100500D01*
X134505327Y-85100500D01*
X136254673Y-85100500D01*
X136254674Y-85100500D01*
X136327740Y-85085966D01*
X136410601Y-85030601D01*
X136465966Y-84947740D01*
X136480500Y-84874674D01*
X136480500Y-83913385D01*
X136819500Y-83913385D01*
X136819500Y-84086614D01*
X136846597Y-84257702D01*
X136846598Y-84257706D01*
X136900123Y-84422438D01*
X136900125Y-84422441D01*
X136900126Y-84422444D01*
X136900127Y-84422445D01*
X136978768Y-84576788D01*
X137080586Y-84716928D01*
X137203072Y-84839414D01*
X137343212Y-84941232D01*
X137497555Y-85019873D01*
X137497557Y-85019873D01*
X137497558Y-85019874D01*
X137497561Y-85019876D01*
X137662293Y-85073401D01*
X137662297Y-85073402D01*
X137833386Y-85100500D01*
X137833389Y-85100500D01*
X138006614Y-85100500D01*
X138177702Y-85073402D01*
X138177706Y-85073401D01*
X138342438Y-85019876D01*
X138342440Y-85019874D01*
X138342445Y-85019873D01*
X138496788Y-84941232D01*
X138636928Y-84839414D01*
X138759414Y-84716928D01*
X138861232Y-84576788D01*
X138939873Y-84422445D01*
X138939874Y-84422440D01*
X138939876Y-84422438D01*
X138993401Y-84257706D01*
X138993402Y-84257702D01*
X139020500Y-84086614D01*
X139020500Y-83913385D01*
X138993402Y-83742297D01*
X138993401Y-83742293D01*
X138939876Y-83577561D01*
X138939874Y-83577558D01*
X138939873Y-83577557D01*
X138939873Y-83577555D01*
X138861232Y-83423212D01*
X138759414Y-83283072D01*
X138636928Y-83160586D01*
X138496788Y-83058768D01*
X138496787Y-83058767D01*
X138496785Y-83058766D01*
X138342441Y-82980125D01*
X138342438Y-82980123D01*
X138177706Y-82926598D01*
X138177702Y-82926597D01*
X138006614Y-82899500D01*
X138006611Y-82899500D01*
X137833389Y-82899500D01*
X137833386Y-82899500D01*
X137662297Y-82926597D01*
X137662293Y-82926598D01*
X137497561Y-82980123D01*
X137497558Y-82980125D01*
X137343214Y-83058766D01*
X137203073Y-83160585D01*
X137080585Y-83283073D01*
X136978766Y-83423214D01*
X136900125Y-83577558D01*
X136900123Y-83577561D01*
X136846598Y-83742293D01*
X136846597Y-83742297D01*
X136819500Y-83913385D01*
X136480500Y-83913385D01*
X136480500Y-83125326D01*
X136465966Y-83052260D01*
X136417768Y-82980125D01*
X136410602Y-82969400D01*
X136410599Y-82969397D01*
X136327742Y-82914035D01*
X136327740Y-82914034D01*
X136327737Y-82914033D01*
X136327736Y-82914033D01*
X136254684Y-82899501D01*
X136254674Y-82899500D01*
X134505326Y-82899500D01*
X134505325Y-82899500D01*
X134505315Y-82899501D01*
X134432263Y-82914033D01*
X134432257Y-82914035D01*
X134349400Y-82969397D01*
X134349397Y-82969400D01*
X134294035Y-83052257D01*
X134294033Y-83052263D01*
X134279501Y-83125315D01*
X134279500Y-83125327D01*
X128000500Y-83125327D01*
X128000500Y-82099500D01*
X128019407Y-82041309D01*
X128068907Y-82005345D01*
X128099500Y-82000500D01*
X166900500Y-82000500D01*
X166958691Y-82019407D01*
G37*
%TD.AperFunction*%
%TD*%
M02*
