%TF.GenerationSoftware,KiCad,Pcbnew,10.0.6-1.fc44*%
%TF.CreationDate,2026-09-22T11:54:47-07:00*%
%TF.ProjectId,desk-sm-pcb,6465736b-2d73-46d2-9d70-63622e6b6963,rev?*%
%TF.SameCoordinates,Original*%
%TF.FileFunction,Copper,L1,Top*%
%TF.FilePolarity,Positive*%
%FSLAX46Y46*%
G04 Gerber Fmt 4.6, Leading zero omitted, Abs format (unit mm)*
G04 Created by KiCad (PCBNEW 10.0.6-1.fc44) date 2026-09-22 11:54:47*
%MOMM*%
%LPD*%
G01*
G04 APERTURE LIST*
%TA.AperFunction,Conductor*%
%ADD10C,0.200000*%
%TD*%
%TA.AperFunction,ComponentPad*%
%ADD11R,1.700000X1.700000*%
%TD*%
%TA.AperFunction,ComponentPad*%
%ADD12C,1.700000*%
%TD*%
%TA.AperFunction,ComponentPad*%
%ADD13C,1.600000*%
%TD*%
%TA.AperFunction,ViaPad*%
%ADD14C,0.600000*%
%TD*%
G04 APERTURE END LIST*
%TO.N,+3V3*%
D10*
X134000000Y-85500000D02*
X162000000Y-85500000D01*
X162000000Y-113500000D01*
X134000000Y-113500000D01*
X134000000Y-85500000D01*
%TD*%
D11*
%TO.P,SW2,1*%
%TO.N,KEY2*%
X140750000Y-119250000D03*
D12*
X147250000Y-119250000D03*
%TO.P,SW2,2*%
%TO.N,GND*%
X140750000Y-123750000D03*
X147250000Y-123750000D03*
%TD*%
D11*
%TO.P,J1,1*%
%TO.N,+3V3*%
X135380000Y-84000000D03*
D12*
%TO.P,J1,2*%
%TO.N,N/C*%
X137920000Y-84000000D03*
%TO.P,J1,3*%
%TO.N,TFT_DC*%
X140460000Y-84000000D03*
%TO.P,J1,4*%
%TO.N,TFT_RST*%
X143000000Y-84000000D03*
%TO.P,J1,5*%
%TO.N,TFT_CS*%
X145540000Y-84000000D03*
%TO.P,J1,6*%
%TO.N,SPI_MOSI*%
X148080000Y-84000000D03*
%TO.P,J1,7*%
%TO.N,N/C*%
X150620000Y-84000000D03*
%TO.P,J1,8*%
%TO.N,SPI_SCK*%
X153160000Y-84000000D03*
%TO.P,J1,9*%
%TO.N,GND*%
X155700000Y-84000000D03*
%TO.P,J1,10*%
%TO.N,N/C*%
X158240000Y-84000000D03*
%TO.P,J1,11*%
%TO.N,+3V3*%
X160780000Y-84000000D03*
%TD*%
D11*
%TO.P,SW1,1*%
%TO.N,KEY1*%
X130750000Y-119250000D03*
D12*
X137250000Y-119250000D03*
%TO.P,SW1,2*%
%TO.N,GND*%
X130750000Y-123750000D03*
X137250000Y-123750000D03*
%TD*%
D13*
%TO.P,C1,1*%
%TO.N,+3V3*%
X165000000Y-93000000D03*
%TO.P,C1,2*%
%TO.N,GND*%
X165000000Y-88000000D03*
%TD*%
D11*
%TO.P,ENC1,A,A_A*%
%TO.N,ENC_A*%
X150500000Y-124500000D03*
D12*
%TO.P,ENC1,B,B_B*%
%TO.N,ENC_B*%
X150500000Y-119500000D03*
%TO.P,ENC1,C,C_C*%
%TO.N,GND*%
X150500000Y-122000000D03*
%TO.P,ENC1,S1,S1_S1*%
%TO.N,ENC_PUSH*%
X163500000Y-124500000D03*
%TO.P,ENC1,S2,S2_S2*%
%TO.N,GND*%
X163500000Y-119500000D03*
%TD*%
D14*
%TO.N,+3V3*%
X135000000Y-103250000D03*
%TO.N,KEY2*%
X142000000Y-101900000D03*
X141750000Y-112900000D03*
%TO.N,TFT_CS*%
X144500000Y-86100000D03*
X139000000Y-86100000D03*
%TO.N,KEY1*%
X130750000Y-101750000D03*
%TO.N,ENC_A*%
X149000000Y-112900000D03*
X144750000Y-101750000D03*
%TO.N,ENC_B*%
X146750000Y-101500000D03*
X150500000Y-112900000D03*
%TO.N,ENC_PUSH*%
X152250000Y-102250000D03*
X160750000Y-112750000D03*
%TD*%
%TO.N,+3V3*%
D10*
X135380000Y-102870000D02*
X135000000Y-103250000D01*
X135380000Y-84000000D02*
X135380000Y-102870000D01*
%TO.N,KEY2*%
X142000000Y-101900000D02*
X141750000Y-102150000D01*
X141750000Y-102150000D02*
X141750000Y-112900000D01*
%TO.N,TFT_CS*%
X139000000Y-86100000D02*
X144500000Y-86100000D01*
%TO.N,KEY1*%
X128250000Y-117250000D02*
X129750000Y-117250000D01*
X130250000Y-105500000D02*
X128750000Y-105500000D01*
X128750000Y-105500000D02*
X128250000Y-106000000D01*
X130750000Y-105000000D02*
X130250000Y-105500000D01*
X130750000Y-118250000D02*
X130750000Y-119250000D01*
X129750000Y-117250000D02*
X130750000Y-118250000D01*
X130750000Y-101750000D02*
X130750000Y-105000000D01*
X128250000Y-106000000D02*
X128250000Y-117250000D01*
%TO.N,ENC_A*%
X149000000Y-106000000D02*
X149000000Y-112900000D01*
X144750000Y-101750000D02*
X149000000Y-106000000D01*
%TO.N,ENC_B*%
X146750000Y-101500000D02*
X150500000Y-105250000D01*
X150500000Y-105250000D02*
X150500000Y-112900000D01*
%TO.N,ENC_PUSH*%
X152250000Y-102250000D02*
X160750000Y-110750000D01*
X160750000Y-110750000D02*
X160750000Y-112750000D01*
%TD*%
M02*
