%TF.GenerationSoftware,KiCad,Pcbnew,10.0.6-1.fc44*%
%TF.CreationDate,2026-09-22T11:54:47-07:00*%
%TF.ProjectId,desk-sm-pcb,6465736b-2d73-46d2-9d70-63622e6b6963,rev?*%
%TF.SameCoordinates,Original*%
%TF.FileFunction,Soldermask,Bot*%
%TF.FilePolarity,Negative*%
%FSLAX46Y46*%
G04 Gerber Fmt 4.6, Leading zero omitted, Abs format (unit mm)*
G04 Created by KiCad (PCBNEW 10.0.6-1.fc44) date 2026-09-22 11:54:47*
%MOMM*%
%LPD*%
G01*
G04 APERTURE LIST*
G04 Aperture macros list*
%AMRoundRect*
0 Rectangle with rounded corners*
0 $1 Rounding radius*
0 $2 $3 $4 $5 $6 $7 $8 $9 X,Y pos of 4 corners*
0 Add a 4 corners polygon primitive as box body*
4,1,4,$2,$3,$4,$5,$6,$7,$8,$9,$2,$3,0*
0 Add four circle primitives for the rounded corners*
1,1,$1+$1,$2,$3*
1,1,$1+$1,$4,$5*
1,1,$1+$1,$6,$7*
1,1,$1+$1,$8,$9*
0 Add four rect primitives between the rounded corners*
20,1,$1+$1,$2,$3,$4,$5,0*
20,1,$1+$1,$4,$5,$6,$7,0*
20,1,$1+$1,$6,$7,$8,$9,0*
20,1,$1+$1,$8,$9,$2,$3,0*%
G04 Aperture macros list end*
%ADD10R,1.700000X1.700000*%
%ADD11C,1.700000*%
%ADD12C,1.600000*%
%ADD13C,3.200000*%
%ADD14RoundRect,0.550800X0.500000X-0.875000X0.500000X0.875000X-0.500000X0.875000X-0.500000X-0.875000X0*%
%ADD15RoundRect,0.275000X-0.275000X0.975000X-0.275000X-0.975000X0.275000X-0.975000X0.275000X0.975000X0*%
%ADD16RoundRect,0.625000X0.625000X-0.750000X0.625000X0.750000X-0.625000X0.750000X-0.625000X-0.750000X0*%
G04 APERTURE END LIST*
D10*
%TO.C,SW2*%
X140750000Y-119250000D03*
D11*
X147250000Y-119250000D03*
X140750000Y-123750000D03*
X147250000Y-123750000D03*
%TD*%
D10*
%TO.C,J1*%
X135380000Y-84000000D03*
D11*
X137920000Y-84000000D03*
X140460000Y-84000000D03*
X143000000Y-84000000D03*
X145540000Y-84000000D03*
X148080000Y-84000000D03*
X150620000Y-84000000D03*
X153160000Y-84000000D03*
X155700000Y-84000000D03*
X158240000Y-84000000D03*
X160780000Y-84000000D03*
%TD*%
D10*
%TO.C,SW1*%
X130750000Y-119250000D03*
D11*
X137250000Y-119250000D03*
X130750000Y-123750000D03*
X137250000Y-123750000D03*
%TD*%
D12*
%TO.C,C1*%
X165000000Y-93000000D03*
X165000000Y-88000000D03*
%TD*%
D13*
%TO.C,MH4*%
X130500000Y-84500000D03*
%TD*%
%TO.C,MH1*%
X164500000Y-130000000D03*
%TD*%
%TO.C,MH2*%
X130500000Y-129000000D03*
%TD*%
D10*
%TO.C,ENC1*%
X150500000Y-124500000D03*
D11*
X150500000Y-119500000D03*
X150500000Y-122000000D03*
X163500000Y-124500000D03*
X163500000Y-119500000D03*
%TD*%
D13*
%TO.C,MH3*%
X164500000Y-84500000D03*
%TD*%
D14*
%TO.C,U1*%
X130392000Y-91215000D03*
X132932000Y-91215000D03*
X135472000Y-91215000D03*
X138012000Y-91215000D03*
X140552000Y-91215000D03*
X143092000Y-91215000D03*
X145632000Y-91215000D03*
X145632000Y-107380000D03*
X143092000Y-107380000D03*
X140552000Y-107380000D03*
X138012000Y-107380000D03*
X135472000Y-107380000D03*
X132932000Y-107380000D03*
X130392000Y-107380000D03*
D11*
X129380000Y-98000000D03*
X129380000Y-100540000D03*
X131920000Y-98000000D03*
X131920000Y-100540000D03*
X134460000Y-98000000D03*
X134460000Y-100540000D03*
X137000000Y-98000000D03*
X137000000Y-100540000D03*
D15*
X137630000Y-94825000D03*
X135725000Y-94825000D03*
D16*
X140012000Y-100390000D03*
%TD*%
M02*
